# This file uses centimeters as units for non-parametric coordinates.

mtllib Flag.mtl
g default
v 42.522991 211.479095 2.779664
v 42.522991 210.531860 2.779664
v 42.522991 210.058228 3.600000
v 42.522991 210.531860 4.420335
v 42.522991 211.479095 4.420335
v 42.522991 211.952698 3.600000
v 42.522991 211.005478 3.600000
v 36.447422 210.152847 5.076763
v 36.447422 209.300262 3.600000
v 36.447422 210.152847 2.123237
v 36.447422 211.858078 2.123237
v 36.447422 212.710663 3.600000
v 36.447422 211.858078 5.076763
v -42.522991 211.479095 2.779664
v -42.522991 210.531860 2.779664
v -42.522991 210.058228 3.600000
v -42.522991 210.531860 4.420335
v -42.522991 211.479095 4.420335
v -42.522991 211.952698 3.600000
v -42.522991 211.005478 3.600000
v -36.447422 210.152847 5.076763
v -36.447422 209.300262 3.600000
v -36.447422 210.152847 2.123237
v -36.447422 211.858078 2.123237
v -36.447422 212.710663 3.600000
v -36.447422 211.858078 5.076763
v 1.701223 201.852585 -2.946603
v -1.701221 201.852585 -2.946603
v -3.402444 201.852585 0.000000
v -1.701223 201.852585 2.946603
v 1.701221 201.852585 2.946603
v 3.402444 201.852585 0.000000
v 1.073443 223.947418 -1.859257
v -1.073443 223.947418 -1.859259
v -2.146886 223.947418 0.000000
v -1.073443 223.947418 1.859259
v 1.073443 223.947418 1.859259
v 2.146886 223.947418 0.000000
v 0.000000 201.852585 0.000000
v 0.000000 223.947418 0.000000
v 0.719718 -3.575577 -1.246589
v -0.719718 -3.575577 -1.246589
v -1.439437 -3.575577 0.000000
v -0.719718 -3.575577 1.246588
v 0.719719 -3.575577 1.246588
v 1.439437 -3.575577 0.000000
v 1.295633 209.375580 -2.244101
v -1.295633 209.375580 -2.244101
v -2.591265 209.375580 0.000000
v -1.295633 209.375580 2.244101
v 1.295633 209.375580 2.244101
v 2.591265 209.375580 0.000000
v 0.000000 -3.575577 0.000000
v 0.000000 209.375580 0.000000
v -1.295633 12.899994 2.244101
v -2.591265 12.899994 0.000000
v -1.295633 12.899994 -2.244101
v 1.295633 12.899994 -2.244101
v 2.591265 12.899994 0.000000
v 1.295633 12.899994 2.244101
v -6.637774 219.387024 0.467635
v 0.000000 218.730530 1.763758
v 0.000000 239.182434 0.470826
v 6.637774 219.387024 0.467635
v 0.000000 239.182434 -0.470826
v 6.637774 219.387024 -0.467635
v -6.637774 219.387024 -0.467635
v 0.000000 218.730530 -1.763758
v 0.000000 239.182434 0.000000
v -6.637774 219.387024 0.000000
v 0.000000 218.730530 0.000000
v 6.637774 219.387024 0.000000
vt 0.881249 0.334956
vt 0.888402 0.334956
vt 0.891264 0.380839
vt 0.878387 0.380839
vt 0.906857 0.334956
vt 0.913053 0.334956
vt 0.913053 0.380839
vt 0.901900 0.380839
vt 0.919248 0.334956
vt 0.924205 0.380839
vt 0.937093 0.334956
vt 0.944247 0.334956
vt 0.947109 0.380839
vt 0.934231 0.380839
vt 0.962702 0.334956
vt 0.968897 0.334956
vt 0.968897 0.380839
vt 0.957745 0.380839
vt 0.975092 0.334956
vt 0.980050 0.380839
vt 0.968122 0.023106
vt 0.968122 0.029278
vt 0.962776 0.026192
vt 0.962776 0.020019
vt 0.957431 0.023106
vt 0.957431 0.029278
vt 0.962776 0.032364
vt 0.881249 0.977226
vt 0.878387 0.931343
vt 0.891264 0.931343
vt 0.888402 0.977226
vt 0.906857 0.977226
vt 0.901900 0.931343
vt 0.913053 0.931343
vt 0.913053 0.977226
vt 0.924205 0.931343
vt 0.919248 0.977226
vt 0.937093 0.977226
vt 0.934231 0.931343
vt 0.947109 0.931343
vt 0.944247 0.977226
vt 0.962702 0.977226
vt 0.957745 0.931343
vt 0.968897 0.931343
vt 0.968897 0.977226
vt 0.980050 0.931343
vt 0.975092 0.977226
vt 0.977719 0.023106
vt 0.983064 0.026192
vt 0.977719 0.029278
vt 0.983064 0.020019
vt 0.988410 0.023106
vt 0.988410 0.029278
vt 0.983064 0.032364
vt 0.853399 0.223450
vt 0.831700 0.223450
vt 0.835704 0.082537
vt 0.849396 0.082537
vt 0.861485 0.082537
vt 0.880278 0.082537
vt 0.880278 0.223450
vt 0.868420 0.223450
vt 0.899070 0.082537
vt 0.892135 0.223450
vt 0.908646 0.082537
vt 0.930345 0.082537
vt 0.926341 0.223450
vt 0.912649 0.223450
vt 0.938431 0.082537
vt 0.957223 0.082537
vt 0.957223 0.223450
vt 0.945366 0.223450
vt 0.976016 0.082537
vt 0.969081 0.223450
vt 0.812878 0.053276
vt 0.812878 0.031105
vt 0.832078 0.042190
vt 0.832078 0.064361
vt 0.851278 0.053276
vt 0.851278 0.031105
vt 0.832078 0.020020
vt 0.923333 0.027014
vt 0.923333 0.041003
vt 0.911217 0.034009
vt 0.911217 0.047998
vt 0.899102 0.041003
vt 0.899102 0.027014
vt 0.911217 0.020019
vt 0.010592 0.998008
vt 0.003860 0.998008
vt 0.001166 0.920948
vt 0.013286 0.920948
vt 0.024217 0.001992
vt 0.030048 0.001992
vt 0.030048 0.079052
vt 0.019551 0.079052
vt 0.035878 0.001992
vt 0.040544 0.079052
vt 0.049550 0.001992
vt 0.056283 0.001992
vt 0.058976 0.079052
vt 0.046856 0.079052
vt 0.069725 0.001992
vt 0.075556 0.001992
vt 0.075556 0.079052
vt 0.065060 0.079052
vt 0.081386 0.001992
vt 0.086052 0.079052
vt 0.932070 0.034089
vt 0.932070 0.024709
vt 0.940193 0.029399
vt 0.940193 0.038779
vt 0.948316 0.034089
vt 0.948316 0.024709
vt 0.940193 0.020020
vt 0.890308 0.028462
vt 0.890308 0.045347
vt 0.875685 0.036904
vt 0.875685 0.053789
vt 0.861062 0.045347
vt 0.861062 0.028462
vt 0.875685 0.020019
vt 0.040544 0.998008
vt 0.030048 0.998008
vt 0.019551 0.998008
vt 0.001166 0.001992
vt 0.013286 0.001992
vt 0.086052 0.998008
vt 0.075556 0.998008
vt 0.065060 0.998008
vt 0.058976 0.998008
vt 0.046856 0.998008
vt 0.589262 0.024297
vt 0.632515 0.020019
vt 0.632515 0.153287
vt 0.749477 0.149009
vt 0.749498 0.020019
vt 0.752545 0.020019
vt 0.752545 0.149009
vt 0.696361 0.020019
vt 0.696361 0.153287
vt 0.653109 0.149009
vt 0.791402 0.106525
vt 0.791402 0.063272
vt 0.802895 0.063272
vt 0.794449 0.106525
vt 0.791402 0.020020
vt 0.794449 0.020020
vt 0.767761 0.020019
vt 0.770808 0.020019
vt 0.770829 0.149009
vt 0.767761 0.149009
vt 0.764714 0.020019
vt 0.764693 0.149009
vt 0.788355 0.106525
vt 0.779909 0.063272
vt 0.788355 0.020020
vt 0.755592 0.020019
vt 0.755613 0.149009
vt 0.675767 0.024297
vt 0.739614 0.149009
vn 0.107419 0.000000 -0.994214
vn 0.107419 0.000000 -0.994214
vn 0.107419 0.000000 -0.994214
vn 0.107419 0.000000 -0.994214
vn 0.107420 -0.861021 -0.497096
vn 0.107420 -0.861021 -0.497096
vn 0.107420 -0.861021 -0.497096
vn 0.107420 -0.861021 -0.497096
vn 0.107420 -0.861021 0.497096
vn 0.107420 -0.861021 0.497096
vn 0.107420 -0.861021 0.497096
vn 0.107420 -0.861021 0.497096
vn 0.107419 0.000000 0.994214
vn 0.107419 0.000000 0.994214
vn 0.107419 0.000000 0.994214
vn 0.107419 0.000000 0.994214
vn 0.107417 0.861021 0.497096
vn 0.107417 0.861021 0.497096
vn 0.107417 0.861021 0.497096
vn 0.107417 0.861021 0.497096
vn 0.107417 0.861021 -0.497096
vn 0.107417 0.861021 -0.497096
vn 0.107417 0.861021 -0.497096
vn 0.107417 0.861021 -0.497096
vn 1.000000 0.000000 0.000000
vn 1.000000 0.000000 0.000000
vn 1.000000 0.000000 0.000000
vn 1.000000 0.000000 0.000000
vn 1.000000 0.000000 0.000000
vn 1.000000 0.000000 0.000000
vn 1.000000 0.000000 0.000000
vn 1.000000 0.000000 0.000000
vn 1.000000 0.000000 0.000000
vn 1.000000 0.000000 0.000000
vn 1.000000 0.000000 0.000000
vn 1.000000 0.000000 0.000000
vn 1.000000 0.000000 0.000000
vn 1.000000 0.000000 0.000000
vn 1.000000 0.000000 0.000000
vn 1.000000 0.000000 0.000000
vn 1.000000 0.000000 0.000000
vn 1.000000 0.000000 0.000000
vn -0.107419 0.000000 -0.994214
vn -0.107419 0.000000 -0.994214
vn -0.107419 0.000000 -0.994214
vn -0.107419 0.000000 -0.994214
vn -0.107420 -0.861021 -0.497096
vn -0.107420 -0.861021 -0.497096
vn -0.107420 -0.861021 -0.497096
vn -0.107420 -0.861021 -0.497096
vn -0.107420 -0.861020 0.497096
vn -0.107420 -0.861021 0.497096
vn -0.107420 -0.861021 0.497096
vn -0.107420 -0.861021 0.497096
vn -0.107419 0.000000 0.994214
vn -0.107419 0.000000 0.994214
vn -0.107419 0.000000 0.994214
vn -0.107419 0.000000 0.994214
vn -0.107417 0.861021 0.497096
vn -0.107417 0.861021 0.497096
vn -0.107417 0.861021 0.497096
vn -0.107417 0.861021 0.497096
vn -0.107417 0.861021 -0.497096
vn -0.107417 0.861021 -0.497096
vn -0.107417 0.861021 -0.497096
vn -0.107417 0.861021 -0.497096
vn -1.000000 0.000000 0.000000
vn -1.000000 0.000000 0.000000
vn -1.000000 0.000000 0.000000
vn -1.000000 0.000000 0.000000
vn -1.000000 0.000000 0.000000
vn -1.000000 0.000000 0.000000
vn -1.000000 0.000000 0.000000
vn -1.000000 0.000000 0.000000
vn -1.000000 0.000000 0.000000
vn -1.000000 0.000000 0.000000
vn -1.000000 0.000000 0.000000
vn -1.000000 0.000000 0.000000
vn -1.000000 0.000000 0.000000
vn -1.000000 0.000000 0.000000
vn -1.000000 0.000000 0.000000
vn -1.000000 0.000000 0.000000
vn -1.000000 0.000000 0.000000
vn -1.000000 0.000000 0.000000
vn 0.000000 -0.866034 0.499985
vn 0.000000 -0.866034 0.499985
vn 0.000000 -0.866034 0.499985
vn 0.000000 -0.866034 0.499985
vn 0.000000 -0.866034 -0.499985
vn 0.000000 -0.866034 -0.499985
vn 0.000000 -0.866034 -0.499985
vn 0.000000 -0.866034 -0.499985
vn 0.000000 0.000000 -1.000000
vn 0.000000 0.000000 -1.000000
vn 0.000000 0.000000 -1.000000
vn 0.000000 0.000000 -1.000000
vn 0.000000 0.866030 -0.499991
vn 0.000000 0.866030 -0.499991
vn 0.000000 0.866030 -0.499991
vn 0.000000 0.866030 -0.499991
vn 0.000000 0.866030 0.499991
vn 0.000000 0.866030 0.499991
vn 0.000000 0.866030 0.499991
vn 0.000000 0.866030 0.499991
vn 0.000000 0.000000 1.000000
vn 0.000000 0.000000 1.000000
vn 0.000000 0.000000 1.000000
vn 0.000000 0.000000 1.000000
vn 0.000000 0.049153 -0.998791
vn 0.000000 0.049153 -0.998791
vn 0.000000 0.049153 -0.998791
vn 0.000000 0.049153 -0.998791
vn -0.864979 0.049153 -0.499396
vn -0.864979 0.049153 -0.499396
vn -0.864979 0.049153 -0.499396
vn -0.864979 0.049153 -0.499396
vn -0.864979 0.049153 0.499396
vn -0.864979 0.049153 0.499396
vn -0.864979 0.049153 0.499396
vn -0.864979 0.049153 0.499396
vn 0.000000 0.049153 0.998791
vn 0.000000 0.049153 0.998791
vn 0.000000 0.049153 0.998791
vn 0.000000 0.049153 0.998791
vn 0.864979 0.049153 0.499396
vn 0.864979 0.049153 0.499396
vn 0.864979 0.049153 0.499396
vn 0.864979 0.049153 0.499396
vn 0.864979 0.049153 -0.499396
vn 0.864979 0.049153 -0.499396
vn 0.864979 0.049153 -0.499396
vn 0.864979 0.049153 -0.499396
vn 0.000000 -1.000000 0.000003
vn 0.000000 -1.000000 0.000003
vn 0.000000 -1.000000 0.000001
vn 0.000000 -1.000000 0.000001
vn 0.000000 -1.000000 0.000003
vn 0.000000 -1.000000 0.000001
vn 0.000000 -1.000000 0.000001
vn 0.000000 -1.000000 0.000001
vn 0.000000 -1.000000 0.000001
vn 0.000000 -1.000000 0.000000
vn 0.000000 -1.000000 0.000001
vn 0.000000 -1.000000 0.000001
vn 0.000000 -1.000000 0.000000
vn 0.000000 -1.000000 0.000000
vn 0.000000 -1.000000 0.000001
vn 0.000000 -1.000000 0.000003
vn 0.000000 -1.000000 0.000000
vn 0.000000 -1.000000 0.000001
vn 0.000000 1.000000 0.000003
vn 0.000000 1.000000 0.000000
vn 0.000000 1.000000 0.000001
vn 0.000000 1.000000 0.000000
vn 0.000000 1.000000 0.000003
vn 0.000000 1.000000 0.000001
vn 0.000000 1.000000 0.000003
vn 0.000000 1.000000 -0.000003
vn 0.000000 1.000000 0.000001
vn 0.000000 1.000000 -0.000003
vn 0.000000 1.000000 -0.000003
vn 0.000000 1.000000 0.000001
vn 0.000000 1.000000 -0.000003
vn 0.000000 1.000000 0.000006
vn 0.000000 1.000000 0.000001
vn 0.000000 1.000000 0.000006
vn 0.000000 1.000000 0.000003
vn 0.000000 1.000000 0.000001
vn 0.000000 -0.060435 -0.998172
vn 0.000000 -0.060435 -0.998172
vn 0.000000 -0.003656 -0.999993
vn 0.000000 -0.003656 -0.999993
vn -0.864442 -0.060434 -0.499086
vn -0.864442 -0.060434 -0.499086
vn -0.866020 -0.003656 -0.499997
vn -0.866020 -0.003656 -0.499997
vn -0.864443 -0.060434 0.499086
vn -0.864443 -0.060434 0.499086
vn -0.866020 -0.003656 0.499996
vn -0.866020 -0.003656 0.499996
vn 0.000000 -0.060435 0.998172
vn 0.000000 -0.060435 0.998172
vn 0.000000 -0.003656 0.999993
vn 0.000000 -0.003656 0.999993
vn 0.864443 -0.060434 0.499086
vn 0.864443 -0.060434 0.499086
vn 0.866020 -0.003656 0.499997
vn 0.866020 -0.003656 0.499997
vn 0.864443 -0.060435 -0.499086
vn 0.864443 -0.060434 -0.499086
vn 0.866020 -0.003656 -0.499996
vn 0.866020 -0.003656 -0.499996
vn 0.000000 -1.000000 -0.000003
vn 0.000000 -1.000000 0.000003
vn 0.000000 -1.000000 -0.000002
vn 0.000000 -1.000000 -0.000006
vn 0.000000 -1.000000 -0.000003
vn 0.000000 -1.000000 -0.000002
vn 0.000000 -1.000000 -0.000003
vn 0.000000 -1.000000 -0.000006
vn 0.000000 -1.000000 -0.000002
vn 0.000000 -1.000000 -0.000003
vn 0.000000 -1.000000 -0.000003
vn 0.000000 -1.000000 -0.000002
vn 0.000000 -1.000000 0.000000
vn 0.000000 -1.000000 -0.000003
vn 0.000000 -1.000000 -0.000002
vn 0.000000 -1.000000 0.000003
vn 0.000000 -1.000000 0.000000
vn 0.000000 -1.000000 -0.000002
vn 0.000000 1.000000 -0.000004
vn 0.000000 1.000000 0.000000
vn 0.000000 1.000000 -0.000002
vn 0.000000 1.000000 0.000000
vn 0.000000 1.000000 0.000000
vn 0.000000 1.000000 -0.000002
vn 0.000000 1.000000 0.000000
vn 0.000000 1.000000 -0.000002
vn 0.000000 1.000000 -0.000002
vn 0.000000 1.000000 -0.000002
vn 0.000000 1.000000 -0.000002
vn 0.000000 1.000000 -0.000002
vn 0.000000 1.000000 -0.000002
vn 0.000000 1.000000 -0.000004
vn 0.000000 1.000000 -0.000002
vn 0.000000 1.000000 -0.000004
vn 0.000000 1.000000 -0.000004
vn 0.000000 1.000000 -0.000002
vn -0.866020 -0.003656 0.499996
vn -0.866020 -0.003656 0.499996
vn -0.866026 0.000000 0.500000
vn -0.866026 0.000000 0.500000
vn -0.866020 -0.003656 -0.499997
vn -0.866020 -0.003656 -0.499997
vn -0.866025 0.000000 -0.500000
vn -0.866025 0.000000 -0.500000
vn 0.000000 -0.003656 -0.999993
vn 0.000000 -0.003656 -0.999993
vn 0.000000 0.000000 -1.000000
vn 0.000000 0.000000 -1.000000
vn 0.866020 -0.003656 -0.499996
vn 0.866020 -0.003656 -0.499996
vn 0.866026 0.000000 -0.500000
vn 0.866026 0.000000 -0.500000
vn 0.866020 -0.003656 0.499997
vn 0.866020 -0.003656 0.499997
vn 0.866025 0.000000 0.500000
vn 0.866025 0.000000 0.500000
vn 0.000000 -0.003656 0.999993
vn 0.000000 -0.003656 0.999993
vn 0.000000 0.000000 1.000000
vn 0.000000 0.000000 1.000000
vn -0.237181 0.067487 0.969119
vn -0.237181 0.067487 0.969119
vn -0.237181 0.067487 0.969119
vn 0.961681 0.274172 0.000000
vn 0.961680 0.274174 0.000000
vn 0.961680 0.274174 0.000000
vn 0.961680 0.274174 0.000000
vn -0.237181 0.067487 -0.969119
vn -0.237181 0.067487 -0.969119
vn -0.237181 0.067487 -0.969119
vn -0.443271 -0.896388 0.000000
vn -0.443271 -0.896388 0.000000
vn -0.443271 -0.896388 0.000000
vn -0.443271 -0.896388 0.000000
vn 0.443271 -0.896388 0.000000
vn 0.443271 -0.896388 0.000000
vn 0.443271 -0.896388 0.000000
vn 0.443271 -0.896388 0.000000
vn -0.961680 0.274174 0.000000
vn -0.961680 0.274174 0.000000
vn -0.961681 0.274172 0.000000
vn -0.961680 0.274174 0.000000
vn -0.961680 0.274174 0.000000
vn -0.961680 0.274174 0.000000
vn -0.961680 0.274174 0.000000
vn -0.961681 0.274172 0.000000
vn -0.443271 -0.896388 0.000000
vn -0.443271 -0.896388 0.000000
vn -0.443271 -0.896388 0.000000
vn -0.443271 -0.896388 0.000000
vn 0.443271 -0.896388 0.000000
vn 0.443271 -0.896388 0.000000
vn 0.443271 -0.896388 0.000000
vn 0.443271 -0.896388 0.000000
vn 0.961680 0.274174 0.000000
vn 0.961680 0.274174 0.000000
vn 0.961680 0.274174 0.000000
vn 0.961681 0.274172 0.000000
vn 0.237181 0.067487 0.969119
vn 0.237181 0.067487 0.969119
vn 0.237181 0.067487 0.969119
vn 0.237181 0.067487 -0.969119
vn 0.237181 0.067487 -0.969119
vn 0.237181 0.067487 -0.969119
s off
g polySurface281
usemtl initialShadingGroup
f 1/1/1 2/2/2 10/3/3 11/4/4
f 2/5/5 3/6/6 9/7/7 10/8/8
f 3/6/9 4/9/10 8/10/11 9/7/12
f 4/11/13 5/12/14 13/13/15 8/14/16
f 5/15/17 6/16/18 12/17/19 13/18/20
f 6/16/21 1/19/22 11/20/23 12/17/24
f 2/21/25 1/22/26 7/23/27
f 3/24/28 2/21/29 7/23/30
f 4/25/31 3/24/32 7/23/33
f 5/26/34 4/25/35 7/23/36
f 6/27/37 5/26/38 7/23/39
f 1/22/40 6/27/41 7/23/42
f 14/28/43 24/29/44 23/30/45 15/31/46
f 15/32/47 23/33/48 22/34/49 16/35/50
f 16/35/51 22/34/52 21/36/53 17/37/54
f 17/38/55 21/39/56 26/40/57 18/41/58
f 18/42/59 26/43/60 25/44/61 19/45/62
f 19/45/63 25/44/64 24/46/65 14/47/66
f 15/48/67 20/49/68 14/50/69
f 16/51/70 20/49/71 15/48/72
f 17/52/73 20/49/74 16/51/75
f 18/53/76 20/49/77 17/52/78
f 19/54/79 20/49/80 18/53/81
f 14/50/82 20/49/83 19/54/84
f 8/10/85 21/36/86 22/34/87 9/7/88
f 9/7/89 22/34/90 23/33/91 10/8/92
f 10/3/93 23/30/94 24/29/95 11/4/96
f 11/20/97 24/46/98 25/44/99 12/17/100
f 12/17/101 25/44/102 26/43/103 13/18/104
f 13/13/105 26/40/106 21/39/107 8/14/108
f 27/55/109 28/56/110 34/57/111 33/58/112
f 28/59/113 29/60/114 35/61/115 34/62/116
f 29/60/117 30/63/118 36/64/119 35/61/120
f 30/65/121 31/66/122 37/67/123 36/68/124
f 31/69/125 32/70/126 38/71/127 37/72/128
f 32/70/129 27/73/130 33/74/131 38/71/132
f 28/75/133 27/76/134 39/77/135
f 29/78/136 28/75/137 39/77/138
f 30/79/139 29/78/140 39/77/141
f 31/80/142 30/79/143 39/77/144
f 32/81/145 31/80/146 39/77/147
f 27/76/148 32/81/149 39/77/150
f 33/82/151 34/83/152 40/84/153
f 34/83/154 35/85/155 40/84/156
f 35/85/157 36/86/158 40/84/159
f 36/86/160 37/87/161 40/84/162
f 37/87/163 38/88/164 40/84/165
f 38/88/166 33/82/167 40/84/168
f 41/89/169 42/90/170 57/91/171 58/92/172
f 42/93/173 43/94/174 56/95/175 57/96/176
f 43/94/177 44/97/178 55/98/179 56/95/180
f 44/99/181 45/100/182 60/101/183 55/102/184
f 45/103/185 46/104/186 59/105/187 60/106/188
f 46/104/189 41/107/190 58/108/191 59/105/192
f 42/109/193 41/110/194 53/111/195
f 43/112/196 42/109/197 53/111/198
f 44/113/199 43/112/200 53/111/201
f 45/114/202 44/113/203 53/111/204
f 46/115/205 45/114/206 53/111/207
f 41/110/208 46/115/209 53/111/210
f 47/116/211 48/117/212 54/118/213
f 48/117/214 49/119/215 54/118/216
f 49/119/217 50/120/218 54/118/219
f 50/120/220 51/121/221 54/118/222
f 51/121/223 52/122/224 54/118/225
f 52/122/226 47/116/227 54/118/228
f 56/95/229 55/98/230 50/123/231 49/124/232
f 57/96/233 56/95/234 49/124/235 48/125/236
f 58/92/237 57/91/238 48/126/239 47/127/240
f 59/105/241 58/108/242 47/128/243 52/129/244
f 60/106/245 59/105/246 52/129/247 51/130/248
f 55/102/249 60/101/250 51/131/251 50/132/252
f 61/133/253 62/134/254 63/135/255
f 63/136/256 64/137/257 72/138/258 69/139/259
f 65/140/260 68/141/261 67/142/262
f 70/143/263 71/144/264 62/145/265 61/146/266
f 62/145/267 71/144/268 72/147/269 64/148/270
f 70/149/271 61/150/272 63/151/273 69/152/274
f 67/153/275 70/149/276 69/152/277 65/154/278
f 67/155/279 68/156/280 71/144/281 70/143/282
f 72/147/283 71/144/284 68/156/285 66/157/286
f 69/139/287 72/138/288 66/158/289 65/159/290
f 63/135/291 62/134/292 64/160/293
f 65/140/294 66/161/295 68/141/296
