# This file uses centimeters as units for non-parametric coordinates.

mtllib Parchment.mtl
g default
v -0.000008 101.281609 11.612354
v -0.000008 101.281609 -72.112335
v -19.116688 99.550827 11.612354
v -33.554443 96.469093 11.612354
v -44.832321 96.261482 11.612354
v -51.909561 96.195900 11.612354
v -54.533146 96.695312 11.612354
v -55.121651 98.381119 11.612354
v -55.977833 101.610054 11.612354
v -56.268852 105.482742 11.612354
v -54.780640 108.831528 11.612354
v -51.909477 110.672394 11.612354
v -48.545486 110.334297 11.612354
v -45.944157 108.214012 11.612354
v -45.114613 105.056313 11.612354
v -45.714828 101.931885 11.612354
v -47.148960 99.911980 11.612354
v -49.156357 99.746811 11.612354
v -51.333298 101.663452 11.612354
v -52.368362 104.117134 11.612354
v -51.202892 105.572166 11.612354
v -48.697334 106.301987 11.612354
v -19.116688 99.550827 -72.112335
v -33.554443 96.469093 -72.112335
v -44.832321 96.261482 -72.112335
v -51.909561 96.195900 -72.112335
v -54.533146 96.695312 -72.112335
v -55.121651 98.381119 -72.112335
v -55.977833 101.610054 -72.112335
v -56.268852 105.482742 -72.112335
v -54.780640 108.831528 -72.112335
v -51.909477 110.672394 -72.112335
v -48.545486 110.334297 -72.112335
v -45.944157 108.214012 -72.112335
v -45.114613 105.056313 -72.112335
v -45.714828 101.931885 -72.112335
v -47.148960 99.911980 -72.112335
v -49.156357 99.746811 -72.112335
v -51.333298 101.663452 -72.112335
v -52.368362 104.117134 -72.112335
v -51.202892 105.572166 -72.112335
v -48.697334 106.301987 -72.112335
v 19.116680 99.550827 11.612354
v 33.554443 96.469093 11.612354
v 44.832321 96.261482 11.612354
v 51.909561 96.195900 11.612354
v 54.533142 96.695312 11.612354
v 55.121643 98.381119 11.612354
v 55.977829 101.610054 11.612354
v 56.268845 105.482742 11.612354
v 54.780632 108.831528 11.612354
v 51.909477 110.672394 11.612354
v 48.545486 110.334297 11.612354
v 45.944160 108.214012 11.612354
v 45.114609 105.056313 11.612354
v 45.714828 101.931885 11.612354
v 47.148960 99.911980 11.612354
v 49.156361 99.746811 11.612354
v 51.333298 101.663452 11.612354
v 52.368362 104.117134 11.612354
v 51.202896 105.572166 11.612354
v 48.697334 106.301987 11.612354
v 19.116680 99.550827 -72.112335
v 33.554443 96.469093 -72.112335
v 44.832321 96.261482 -72.112335
v 51.909561 96.195900 -72.112335
v 54.533142 96.695312 -72.112335
v 55.121643 98.381119 -72.112335
v 55.977829 101.610054 -72.112335
v 56.268845 105.482742 -72.112335
v 54.780632 108.831528 -72.112335
v 51.909477 110.672394 -72.112335
v 48.545486 110.334297 -72.112335
v 45.944160 108.214012 -72.112335
v 45.114609 105.056313 -72.112335
v 45.714828 101.931885 -72.112335
v 47.148960 99.911980 -72.112335
v 49.156361 99.746811 -72.112335
v 51.333298 101.663452 -72.112335
v 52.368362 104.117134 -72.112335
v 51.202896 105.572166 -72.112335
v 48.697334 106.301987 -72.112335
vt 0.140321 0.780115
vt 0.577433 0.780115
vt 0.577433 0.788917
vt 0.140321 0.788917
vt 0.577433 0.805774
vt 0.140321 0.805774
vt 0.577433 0.825993
vt 0.140321 0.825993
vt 0.577433 0.843476
vt 0.140321 0.843476
vt 0.577433 0.853087
vt 0.140321 0.853087
vt 0.140321 0.881720
vt 0.577433 0.881720
vt 0.577433 0.898206
vt 0.140321 0.898205
vt 0.140321 0.870650
vt 0.577433 0.870650
vt 0.577433 0.914518
vt 0.140321 0.914517
vt 0.577432 0.925063
vt 0.140321 0.925063
vt 0.140321 0.945550
vt 0.577432 0.945550
vt 0.577432 0.958360
vt 0.140321 0.958360
vt 0.140321 0.935543
vt 0.577432 0.935543
vt 0.577432 0.965956
vt 0.140321 0.965956
vt 0.140321 0.210700
vt 0.140321 0.201898
vt 0.577433 0.201898
vt 0.577433 0.210700
vt 0.140321 0.185041
vt 0.577433 0.185041
vt 0.140321 0.164822
vt 0.577433 0.164822
vt 0.140321 0.147339
vt 0.577433 0.147338
vt 0.140321 0.137728
vt 0.577433 0.137728
vt 0.140321 0.109095
vt 0.140321 0.092609
vt 0.577433 0.092609
vt 0.577433 0.109095
vt 0.140321 0.076297
vt 0.577433 0.076297
vt 0.140321 0.120165
vt 0.577433 0.120165
vt 0.140321 0.065752
vt 0.577432 0.065752
vt 0.140321 0.045265
vt 0.140321 0.032455
vt 0.577433 0.032455
vt 0.577433 0.045265
vt 0.140321 0.024858
vt 0.577433 0.024859
vt 0.140321 0.055272
vt 0.577432 0.055272
vt 0.140321 0.495407
vt 0.577433 0.495407
vt 0.577433 0.595212
vt 0.140321 0.595212
vt 0.140321 0.395603
vt 0.577433 0.395603
vt 0.577433 0.670589
vt 0.140321 0.670589
vt 0.140321 0.320226
vt 0.577433 0.320226
vt 0.577433 0.729469
vt 0.140321 0.729469
vt 0.140321 0.261346
vt 0.577433 0.261346
vt 0.577433 0.766418
vt 0.140321 0.766418
vt 0.140321 0.224397
vt 0.577433 0.224397
vt 0.577432 0.979038
vt 0.140321 0.979037
vt 0.140321 0.011777
vt 0.577432 0.011778
vn -0.090169 0.995926 0.000000
vn -0.090169 0.995926 0.000000
vn -0.141971 0.989871 0.000000
vn -0.141971 0.989871 0.000000
vn -0.126879 0.991918 0.000000
vn -0.126879 0.991918 0.000000
vn -0.014882 0.999889 0.000000
vn -0.014882 0.999889 0.000000
vn 0.044676 0.999002 0.000000
vn 0.044676 0.999002 0.000000
vn 0.186997 0.982360 0.000000
vn 0.186997 0.982360 0.000000
vn 0.944125 0.329589 0.000000
vn 0.944125 0.329589 0.000000
vn 0.959409 0.282018 0.000000
vn 0.959409 0.282018 0.000000
vn 0.987202 0.159473 0.000000
vn 0.987202 0.159473 0.000000
vn 0.997188 0.074934 0.000000
vn 0.997188 0.074934 0.000000
vn 0.913825 -0.406107 0.000000
vn 0.913825 -0.406107 0.000000
vn 0.913825 -0.406107 0.000000
vn 0.913825 -0.406107 0.000000
vn 0.539744 -0.841829 0.000000
vn 0.539744 -0.841829 0.000000
vn 0.539744 -0.841829 0.000000
vn 0.539744 -0.841829 0.000000
vn -0.100001 -0.994987 0.000000
vn -0.100001 -0.994987 0.000000
vn -0.381025 -0.924565 0.000000
vn -0.381025 -0.924565 0.000000
vn -0.631795 -0.775135 0.000000
vn -0.631795 -0.775135 0.000000
vn -0.967182 -0.254084 0.000000
vn -0.967182 -0.254084 0.000000
vn -0.967182 -0.254084 0.000000
vn -0.967182 -0.254084 0.000000
vn -0.982044 0.188655 0.000000
vn -0.982044 0.188655 0.000000
vn -0.929927 0.367744 0.000000
vn -0.929927 0.367744 0.000000
vn -0.815383 0.578922 0.000000
vn -0.815383 0.578922 0.000000
vn -0.082003 0.996632 0.000000
vn -0.082003 0.996632 0.000000
vn -0.082003 0.996632 0.000000
vn -0.082003 0.996632 0.000000
vn 0.660809 0.750554 0.000000
vn 0.660809 0.750554 0.000000
vn 0.805780 0.592215 0.000000
vn 0.805780 0.592215 0.000000
vn 0.921375 0.388675 0.000000
vn 0.921375 0.388675 0.000000
vn 0.780491 -0.625167 0.000000
vn 0.780491 -0.625167 0.000000
vn 0.780491 -0.625167 0.000000
vn 0.780491 -0.625167 0.000000
vn 0.279658 -0.960100 0.000000
vn 0.279658 -0.960100 0.000000
vn 0.279658 -0.960100 0.000000
vn 0.279658 -0.960100 0.000000
vn 0.090169 0.995927 0.000000
vn 0.141971 0.989871 0.000000
vn 0.141971 0.989871 0.000000
vn 0.090169 0.995927 0.000000
vn 0.126878 0.991918 0.000000
vn 0.126878 0.991918 0.000000
vn 0.014882 0.999889 0.000000
vn 0.014882 0.999889 0.000000
vn -0.044676 0.999002 0.000000
vn -0.044676 0.999002 0.000000
vn -0.186998 0.982360 0.000000
vn -0.186998 0.982360 0.000000
vn -0.944125 0.329589 0.000000
vn -0.959409 0.282018 0.000000
vn -0.959409 0.282018 0.000000
vn -0.944125 0.329589 0.000000
vn -0.987202 0.159473 0.000000
vn -0.987202 0.159473 0.000000
vn -0.997188 0.074934 0.000000
vn -0.997188 0.074934 0.000000
vn -0.913825 -0.406107 0.000000
vn -0.913825 -0.406107 0.000000
vn -0.913825 -0.406107 0.000000
vn -0.913825 -0.406107 0.000000
vn -0.539745 -0.841828 0.000000
vn -0.539745 -0.841828 0.000000
vn -0.539745 -0.841828 0.000000
vn -0.539745 -0.841828 0.000000
vn 0.100001 -0.994987 0.000000
vn 0.381025 -0.924565 0.000000
vn 0.381025 -0.924565 0.000000
vn 0.100001 -0.994987 0.000000
vn 0.631796 -0.775135 0.000000
vn 0.631796 -0.775135 0.000000
vn 0.967182 -0.254086 0.000000
vn 0.967182 -0.254086 0.000000
vn 0.967182 -0.254086 0.000000
vn 0.967182 -0.254086 0.000000
vn 0.982043 0.188656 0.000000
vn 0.929927 0.367744 0.000000
vn 0.929927 0.367744 0.000000
vn 0.982043 0.188656 0.000000
vn 0.815383 0.578922 0.000000
vn 0.815383 0.578922 0.000000
vn 0.082003 0.996632 0.000000
vn 0.082003 0.996632 0.000000
vn 0.082003 0.996632 0.000000
vn 0.082003 0.996632 0.000000
vn -0.660810 0.750553 0.000000
vn -0.805781 0.592214 0.000000
vn -0.805781 0.592214 0.000000
vn -0.660810 0.750553 0.000000
vn -0.921375 0.388675 0.000000
vn -0.921375 0.388675 0.000000
vn -0.780491 -0.625167 0.000000
vn -0.780491 -0.625167 0.000000
vn -0.780491 -0.625167 0.000000
vn -0.780491 -0.625167 0.000000
vn -0.279658 -0.960100 0.000000
vn -0.279658 -0.960100 0.000000
vn -0.279658 -0.960100 0.000000
vn -0.279658 -0.960100 0.000000
s 1
g pCube2
usemtl initialShadingGroup
f 1/61/1 2/62/2 23/63/3 3/64/4
f 3/64/4 23/63/3 24/67/5 4/68/6
f 4/68/6 24/67/5 25/71/7 5/72/8
f 5/72/8 25/71/7 26/75/9 6/76/10
f 6/76/10 26/75/9 27/2/11 7/1/12
s 2
f 7/1/13 27/2/14 28/3/15 8/4/16
f 8/4/16 28/3/15 29/5/17 9/6/18
f 9/6/18 29/5/17 30/7/19 10/8/20
s off
f 10/8/21 30/7/22 31/9/23 11/10/24
f 11/10/25 31/9/26 32/11/27 12/12/28
s 3
f 12/12/29 32/11/30 33/18/31 13/17/32
f 13/17/32 33/18/31 34/14/33 14/13/34
s off
f 14/13/35 34/14/36 35/15/37 15/16/38
s 4
f 15/16/39 35/15/40 36/19/41 16/20/42
f 16/20/42 36/19/41 37/21/43 17/22/44
s off
f 17/22/45 37/21/46 38/28/47 18/27/48
s 5
f 18/27/49 38/28/50 39/24/51 19/23/52
f 19/23/52 39/24/51 40/25/53 20/26/54
s off
f 20/26/55 40/25/56 41/29/57 21/30/58
f 21/30/59 41/29/60 42/79/61 22/80/62
s 6
f 1/61/63 43/65/64 63/66/65 2/62/66
f 43/65/64 44/69/67 64/70/68 63/66/65
f 44/69/67 45/73/69 65/74/70 64/70/68
f 45/73/69 46/77/71 66/78/72 65/74/70
f 46/77/71 47/31/73 67/34/74 66/78/72
s 7
f 47/31/75 48/32/76 68/33/77 67/34/78
f 48/32/76 49/35/79 69/36/80 68/33/77
f 49/35/79 50/37/81 70/38/82 69/36/80
s off
f 50/37/83 51/39/84 71/40/85 70/38/86
f 51/39/87 52/41/88 72/42/89 71/40/90
s 8
f 52/41/91 53/49/92 73/50/93 72/42/94
f 53/49/92 54/43/95 74/46/96 73/50/93
s off
f 54/43/97 55/44/98 75/45/99 74/46/100
s 9
f 55/44/101 56/47/102 76/48/103 75/45/104
f 56/47/102 57/51/105 77/52/106 76/48/103
s off
f 57/51/107 58/59/108 78/60/109 77/52/110
s 10
f 58/59/111 59/53/112 79/56/113 78/60/114
f 59/53/112 60/54/115 80/55/116 79/56/113
s off
f 60/54/117 61/57/118 81/58/119 80/55/120
f 61/57/121 62/81/122 82/82/123 81/58/124
