# This file uses centimeters as units for non-parametric coordinates.

mtllib Anvil.mtl
g default
v -23.578604 36.864990 -15.977962
v -24.906530 34.924011 -13.566819
v -14.574152 25.906555 -8.721525
v -12.236390 25.906555 -11.047903
v 16.464859 25.906555 -11.047924
v 18.761087 25.906555 -8.762880
v 29.093466 34.924011 -16.684444
v 27.894114 37.636497 -19.824839
v -63.305866 56.076004 8.691105
v -65.593475 53.788391 10.706307
v -65.593475 53.788391 -10.706307
v -63.305866 56.076004 -8.691105
v -24.906530 53.788391 -15.878718
v -24.676882 56.076004 -13.601893
v -65.593475 51.262444 -8.455125
v -65.593475 53.668983 -10.706307
v -65.593475 53.668983 10.706307
v -65.593475 51.262444 8.455125
v -24.906530 34.924011 13.566819
v -23.578604 36.864990 15.977962
v -12.236390 25.906555 11.047903
v -14.574152 25.906555 8.721525
v 18.761087 25.906555 8.762880
v 16.464859 25.906555 11.047924
v 29.093466 34.924011 16.684444
v 27.894114 37.636497 19.824839
v -24.676882 56.076004 13.601893
v -24.906530 53.788391 15.878718
v 29.093466 53.761765 -19.914474
v 29.093466 56.076004 -17.593777
v 31.593466 52.215500 -17.108818
v 31.593466 54.519958 -14.751053
v 30.381342 34.924011 -15.030511
v 31.593466 37.211624 -17.108818
v 29.093466 56.076004 17.593777
v 29.093466 53.761765 19.914474
v 30.381342 34.924011 15.030511
v 31.593466 37.211624 17.108818
v 46.093464 52.232346 -11.684442
v 44.062046 52.441544 -14.411505
v 43.805855 54.519958 -12.126401
v 43.805855 34.924011 -12.126401
v 43.857574 37.211624 -14.455737
v 46.093464 37.211624 -11.684442
v 44.062046 37.002426 14.411505
v 43.805855 34.924011 12.126401
v 46.093464 37.002426 11.893641
v 31.593466 54.519958 14.751053
v 31.593466 52.215500 17.108818
v 43.857574 52.232346 14.455737
v 46.093464 52.441544 11.893641
v 43.805855 54.519958 12.126401
v 19.441729 20.781555 -9.206092
v 17.137518 20.781555 -11.499078
v -12.950584 20.781555 -11.499056
v -15.254793 20.781555 -9.206068
v -12.950584 20.781555 11.499055
v -15.254793 20.781555 9.206067
v 17.137518 20.781555 11.499078
v 19.441729 20.781555 9.206092
v 34.057404 5.406555 -18.884346
v 31.754848 5.406555 -21.186899
v 31.769794 -0.593445 -21.186899
v 34.057404 -0.593445 -18.899292
v -27.567915 5.406555 -21.186855
v -29.870468 5.406555 -18.884300
v -29.870468 -0.593445 -18.899246
v -27.582861 -0.593445 -21.186855
v -29.870468 5.406555 18.884296
v -27.567915 5.406555 21.186852
v -27.582861 -0.593445 21.186852
v -29.870468 -0.593445 18.899242
v 31.754848 5.406555 21.186899
v 34.057404 5.406555 18.884346
v 34.057404 -0.593445 18.899292
v 31.769794 -0.593445 21.186899
v -20.660801 13.531555 12.887012
v -18.205826 13.531555 15.082352
v 22.392759 13.531555 15.082384
v 24.847736 13.531555 12.887047
v 24.847736 13.531555 -12.887048
v 22.392759 13.531555 -15.082384
v -18.205826 13.531555 -15.082355
v -20.660801 13.531555 -12.887016
v 45.540268 38.164513 -8.123806
v 45.540268 44.500000 -11.488796
v 45.540268 51.553616 -8.123806
v 45.540268 51.553627 0.000000
v 45.540268 51.553616 8.123806
v 45.540268 44.500000 11.488797
v 45.540268 38.164513 8.123807
v 45.540268 37.040272 0.000000
v 82.832901 47.511166 -2.524487
v 82.832901 49.891457 -3.570167
v 82.832901 51.553631 -2.524487
v 82.832901 51.553627 0.000000
v 82.832901 51.553631 2.524487
v 82.832901 49.891457 3.570168
v 82.832901 47.511162 2.524488
v 82.832901 46.525219 0.000000
v 45.540268 43.000000 0.000000
v 73.509750 51.553627 0.000000
v 73.509750 51.553627 -4.605834
v 73.509750 48.043602 -6.513635
v 73.509750 44.374279 -4.605834
v 73.509750 42.854401 0.000000
v 73.509750 44.374279 4.605834
v 73.509750 48.043602 6.513636
v 73.509750 51.553627 4.605834
v 64.186584 51.553627 0.000000
v 64.186584 51.553619 -6.465313
v 64.186584 46.195728 -9.143335
v 64.186584 41.244457 -6.465313
v 64.186584 40.193562 0.000000
v 64.186584 41.244457 6.465314
v 64.186584 46.195728 9.143335
v 64.186584 51.553619 6.465313
v 54.863426 51.553627 0.000000
v 54.863426 51.553619 -7.629812
v 54.863426 44.847862 -10.790185
v 54.863426 38.732368 -7.629812
v 54.863426 37.699226 0.000000
v 54.863426 38.732353 7.629813
v 54.863426 44.847862 10.790186
v 54.863426 51.553619 7.629812
v 84.332901 48.891457 0.000000
v 83.710106 48.225334 -2.077172
v 84.332901 49.382607 -1.135853
v 84.332901 50.270874 -1.518229
v 83.633354 50.158272 -2.992921
v 84.332901 51.285473 -1.025695
v 83.504242 51.553631 -2.182147
v 84.332901 51.222542 0.000000
v 83.432991 51.553623 0.000000
v 84.332901 51.353058 1.090528
v 83.504242 51.553631 2.182147
v 84.332901 50.269264 1.505301
v 83.624008 50.155159 2.999658
v 84.332901 49.382607 1.135854
v 83.710106 48.225334 2.077173
v 83.727417 47.431633 0.000000
vt 0.311292 0.227973
vt 0.303905 0.243847
vt 0.286081 0.239341
vt 0.295789 0.229227
vt 0.127410 0.308527
vt 0.138103 0.293570
vt 0.281201 0.147256
vt 0.266797 0.150117
vt 0.111516 0.301185
vt 0.124158 0.292125
vt 0.082325 0.220139
vt 0.095167 0.213015
vt 0.598228 0.124393
vt 0.472272 0.123275
vt 0.472272 0.043034
vt 0.598228 0.041916
vt 0.469911 0.135496
vt 0.599471 0.135496
vt 0.457704 0.041914
vt 0.457468 0.123277
vt 0.469911 0.030813
vt 0.599471 0.030813
vt 0.611678 0.124394
vt 0.611914 0.043032
vt 0.862018 0.485991
vt 0.862018 0.579172
vt 0.834640 0.581761
vt 0.834640 0.483402
vt 0.910190 0.460107
vt 0.910190 0.605056
vt 0.862018 0.591600
vt 0.834640 0.594010
vt 0.795910 0.463738
vt 0.795910 0.601425
vt 0.862018 0.473563
vt 0.834640 0.471153
vt 0.795910 0.613152
vt 0.795910 0.452011
vt 0.752506 0.633462
vt 0.752506 0.431700
vt 0.720454 0.633542
vt 0.720454 0.431621
vt 0.752506 0.645764
vt 0.720454 0.645762
vt 0.752506 0.419400
vt 0.720454 0.419400
vt 0.935233 0.159760
vt 0.847322 0.191963
vt 0.835681 0.167070
vt 0.928039 0.133238
vt 0.991538 0.190436
vt 0.824156 0.251752
vt 0.843838 0.190293
vt 0.824314 0.176023
vt 0.933181 0.090108
vt 0.800722 0.138487
vt 0.946695 0.155561
vt 0.939541 0.129025
vt 0.789336 0.147046
vt 0.944193 0.086074
vt 0.762259 0.098979
vt 0.948334 0.038332
vt 0.747783 0.077663
vt 0.937384 0.008208
vt 0.750319 0.107229
vt 0.728780 0.092101
vt 0.959884 0.034101
vt 0.948859 0.004004
vt 0.443629 0.732041
vt 0.436761 0.748250
vt 0.351942 0.779334
vt 0.336227 0.771401
vt 0.336008 0.770802
vt 0.443410 0.731442
vt 0.341910 0.755623
vt 0.429097 0.723672
vt 0.138638 0.945660
vt 0.115716 0.976371
vt 0.076759 0.944231
vt 0.071910 0.975696
vt 0.126611 0.905681
vt 0.029933 0.963150
vt 0.083720 0.899070
vt 0.017322 0.926962
vt 0.040829 0.892459
vt 0.160465 0.693618
vt 0.164461 0.686724
vt 0.170865 0.688363
vt 0.172089 0.696065
vt 0.154013 0.684188
vt 0.161699 0.682358
vt 0.176446 0.684820
vt 0.182382 0.690136
vt 0.172359 0.701137
vt 0.158703 0.697761
vt 0.151191 0.686080
vt 0.157121 0.676147
vt 0.163447 0.676592
vt 0.168911 0.676064
vt 0.177652 0.679832
vt 0.185632 0.679182
vt 0.185830 0.693239
vt 0.174555 0.674462
vt 0.180147 0.672489
vt 0.188863 0.680095
vt 0.765588 0.974940
vt 0.753259 0.962669
vt 0.785750 0.912579
vt 0.797509 0.925666
vt 0.785235 0.695700
vt 0.764777 0.633435
vt 0.796932 0.682557
vt 0.764775 0.431732
vt 0.785242 0.369470
vt 0.796937 0.382614
vt 0.489523 0.719913
vt 0.462216 0.502561
vt 0.607166 0.502561
vt 0.579859 0.719913
vt 0.463241 0.492285
vt 0.462365 0.724444
vt 0.591885 0.719913
vt 0.620046 0.495467
vt 0.475673 0.434877
vt 0.488100 0.447365
vt 0.581282 0.447365
vt 0.593710 0.434877
vt 0.475672 0.281553
vt 0.416107 0.222331
vt 0.593710 0.281553
vt 0.640597 0.220497
vt 0.487879 0.269286
vt 0.445562 0.214090
vt 0.581503 0.269286
vt 0.623820 0.214090
vt 0.443295 0.200735
vt 0.454397 0.207210
vt 0.614985 0.207210
vt 0.626087 0.200735
vt 0.457468 0.135219
vt 0.611678 0.134127
vt 0.246272 0.570893
vt 0.382722 0.520888
vt 0.334039 0.770958
vt 0.236780 0.575634
vt 0.445013 0.730290
vt 0.393030 0.518373
vt 0.114727 0.313829
vt 0.317012 0.239697
vt 0.128113 0.225564
vt 0.249761 0.180983
vt 0.116334 0.229586
vt 0.260752 0.175498
vt 0.128609 0.905402
vt 0.091308 0.849847
vt 0.131099 0.855687
vt 0.051025 0.843637
vt 0.098896 0.800624
vt 0.131819 0.805699
vt 0.064761 0.795362
vt 0.106484 0.751400
vt 0.130704 0.755428
vt 0.082166 0.747652
vt 0.114072 0.702177
vt 0.129004 0.705067
vt 0.100743 0.700122
vt 0.114560 0.699009
vt 0.126139 0.700408
vt 0.103097 0.696856
vt 0.120708 0.695092
vt 0.115293 0.694257
vt 0.109535 0.693370
vt 0.296967 0.863628
vt 0.252294 0.883691
vt 0.232187 0.838125
vt 0.268334 0.823471
vt 0.207361 0.903166
vt 0.196998 0.854948
vt 0.212082 0.792559
vt 0.241563 0.780202
vt 0.183081 0.806007
vt 0.191975 0.746993
vt 0.214206 0.736463
vt 0.169212 0.756316
vt 0.155867 0.706387
vt 0.331496 0.771390
vt 0.153668 0.607648
vt 0.038738 0.357815
vt 0.391956 0.123968
vt 0.391113 0.043821
vt 0.677427 0.042431
vt 0.678271 0.122578
vt 0.851419 0.727432
vt 0.851783 0.880755
vt 0.824413 0.884413
vt 0.824032 0.723682
vt 0.851430 0.337748
vt 0.824043 0.341494
vt 0.721207 0.962825
vt 0.168288 0.905122
vt 0.166430 0.855317
vt 0.159229 0.805512
vt 0.149358 0.755707
vt 0.139487 0.705902
vt 0.130607 0.702316
vt 0.138061 0.701626
vt 0.350148 0.808249
vt 0.324749 0.836083
vt 0.289211 0.801140
vt 0.313358 0.774678
vt 0.257275 0.762249
vt 0.276568 0.741107
vt 0.227139 0.721386
vt 0.239778 0.707536
vt 0.197003 0.680523
vt 0.202988 0.673964
vt 0.194831 0.676634
vt 0.200339 0.671547
vn -0.152347 -0.576470 -0.802790
vn -0.354259 -0.656510 -0.665955
vn -0.341938 -0.636728 -0.691127
vn -0.341938 -0.636728 -0.691127
vn -0.053390 -0.528800 -0.847066
vn -0.387098 -0.708671 -0.589865
vn -0.696444 0.158661 -0.699852
vn -0.696444 0.158661 -0.699852
vn -0.696444 0.158661 -0.699852
vn -0.696444 0.158661 -0.699852
vn 0.697057 0.153152 -0.700469
vn 0.697057 0.153152 -0.700469
vn 0.697057 0.153152 -0.700469
vn 0.697057 0.153151 -0.700469
vn 0.292306 -0.766675 -0.571636
vn -0.014379 -0.537461 -0.843166
vn 0.007312 -0.553271 -0.832969
vn 0.324557 -0.747389 -0.579717
vn 0.212851 -0.700020 -0.681664
vn 0.213584 -0.699920 -0.681538
vn -0.089175 0.707106 0.701462
vn -0.089175 0.707106 0.701462
vn -0.067967 0.707227 0.703712
vn -0.067967 0.707227 0.703712
vn -0.707108 0.707106 0.000000
vn -0.707108 0.707106 0.000000
vn -0.707108 0.707106 0.000000
vn -0.707108 0.707106 0.000000
vn -0.089175 0.707106 -0.701462
vn -0.089175 0.707106 -0.701462
vn -0.067967 0.707227 -0.703712
vn -0.067967 0.707227 -0.703712
vn -0.052352 0.707111 -0.705162
vn -0.052352 0.707111 -0.705162
vn -0.341938 -0.636728 0.691127
vn -0.341938 -0.636728 0.691127
vn -0.354259 -0.656510 0.665955
vn -0.152347 -0.576470 0.802790
vn -0.387098 -0.708671 0.589865
vn -0.053390 -0.528800 0.847066
vn -0.696444 0.158661 0.699852
vn -0.696444 0.158661 0.699852
vn -0.696444 0.158661 0.699852
vn -0.696444 0.158661 0.699852
vn 0.697057 0.153151 0.700469
vn 0.697057 0.153151 0.700469
vn 0.697057 0.153151 0.700469
vn 0.697057 0.153151 0.700469
vn -0.014379 -0.537461 0.843166
vn 0.292306 -0.766675 0.571636
vn 0.324557 -0.747389 0.579717
vn 0.007312 -0.553271 0.832969
vn 0.207056 -0.713246 0.669633
vn 0.206644 -0.713317 0.669684
vn -0.052352 0.707111 0.705162
vn -0.052352 0.707111 0.705162
vn 0.777220 0.447783 -0.442062
vn 0.777220 0.447783 -0.442062
vn 0.777220 0.447783 -0.442062
vn 0.777220 0.447783 -0.442062
vn 0.139074 0.723927 -0.675713
vn 0.139074 0.723927 -0.675713
vn 0.139074 0.723927 -0.675713
vn 0.139074 0.723927 -0.675713
vn 0.149509 -0.707106 -0.691121
vn 0.149509 -0.707106 -0.691121
vn 0.777220 0.447783 0.442062
vn 0.777220 0.447783 0.442062
vn 0.777220 0.447783 0.442062
vn 0.777220 0.447783 0.442062
vn 0.546981 -0.792346 0.270184
vn 0.169630 -0.722286 0.670469
vn 0.692330 0.721351 -0.018252
vn 0.692985 0.720559 -0.023827
vn 0.690445 0.723378 -0.003164
vn 0.690445 0.723378 -0.003164
vn 0.789902 -0.004443 -0.613217
vn 0.789902 -0.004443 -0.613217
vn 0.789902 -0.004443 -0.613217
vn 0.789902 -0.004443 -0.613217
vn 0.690445 -0.723378 -0.003164
vn 0.690445 -0.723378 -0.003164
vn 0.690772 -0.722943 0.013683
vn 0.765603 0.004177 0.643300
vn 0.765603 0.004177 0.643300
vn 0.765603 0.004177 0.643300
vn 0.765603 0.004177 0.643300
vn 0.148558 0.707203 0.691227
vn 0.148558 0.707203 0.691227
vn 0.175924 0.704295 0.687764
vn 0.185783 0.703111 0.686382
vn 0.517898 0.655906 -0.549153
vn 0.517898 0.655906 -0.549153
vn 0.680024 0.731342 -0.052023
vn 0.465700 0.734742 -0.493232
vn -0.517899 0.655906 -0.549153
vn -0.517899 0.655906 -0.549153
vn -0.465700 0.734742 -0.493231
vn -0.680024 0.731342 -0.052023
vn -0.517899 0.655906 0.549153
vn -0.517899 0.655905 0.549153
vn -0.680024 0.731342 0.052023
vn -0.465701 0.734742 0.493231
vn 0.517898 0.655906 0.549153
vn 0.517898 0.655906 0.549153
vn 0.465700 0.734743 0.493232
vn 0.680024 0.731342 0.052023
vn 0.639633 0.766690 -0.055292
vn 0.413591 0.798477 -0.437466
vn 0.707106 0.001761 -0.707106
vn 0.707106 0.001761 -0.707106
vn 0.707106 0.001761 -0.707106
vn 0.707106 0.001761 -0.707106
vn -0.413592 0.798477 -0.437466
vn -0.639633 0.766690 -0.055292
vn -0.707106 0.001761 -0.707105
vn -0.707106 0.001761 -0.707105
vn -0.707106 0.001761 -0.707105
vn -0.707106 0.001761 -0.707105
vn -0.639633 0.766690 0.055292
vn -0.413592 0.798477 0.437466
vn -0.707106 0.001761 0.707105
vn -0.707106 0.001761 0.707105
vn -0.707106 0.001761 0.707105
vn -0.707106 0.001761 0.707105
vn 0.413591 0.798477 0.437466
vn 0.639633 0.766690 0.055292
vn 0.707106 0.001761 0.707106
vn 0.707106 0.001761 0.707106
vn 0.707106 0.001761 0.707106
vn 0.707106 0.001761 0.707106
vn -0.126099 -0.004049 -0.992009
vn -0.090368 -0.001242 -0.995908
vn -0.085601 -0.000868 -0.996329
vn -0.126099 -0.004049 -0.992009
vn -0.372642 -0.927975 0.000000
vn -0.436926 -0.899498 0.000000
vn -0.436926 -0.899498 0.000000
vn -0.372642 -0.927975 0.000000
vn -0.657539 -0.753421 0.000000
vn -0.657539 -0.753421 0.000000
vn 0.000000 1.000000 0.000000
vn 0.000000 1.000000 0.000000
vn 0.000000 1.000000 0.000000
vn 0.000000 1.000000 0.000000
vn -0.126099 -0.004049 0.992009
vn -0.085601 -0.000868 0.996329
vn -0.090368 -0.001242 0.995908
vn -0.126099 -0.004049 0.992009
vn -0.074528 -0.000000 -0.997219
vn -0.074528 -0.000000 -0.997219
vn 0.657539 -0.753421 0.000000
vn 0.657539 -0.753421 0.000000
vn 0.657539 -0.753421 0.000000
vn 0.657539 -0.753421 0.000000
vn 0.659954 -0.027589 -0.750799
vn 0.659954 -0.027589 -0.750799
vn 0.353522 -0.008383 -0.935389
vn 0.327917 -0.006851 -0.944682
vn 0.000000 1.000000 0.000000
vn 0.000000 1.000000 0.000000
vn 0.000000 -1.000000 0.000000
vn 0.000000 -1.000000 0.000000
vn 0.000000 -1.000000 0.000000
vn 0.000000 -1.000000 0.000000
vn -0.074528 -0.000000 0.997219
vn -0.074528 -0.000000 0.997219
vn 0.211438 -0.000000 -0.977391
vn 0.211438 -0.000000 -0.977391
vn 0.000000 -1.000000 0.000000
vn 0.000000 -1.000000 0.000000
vn 0.528422 0.848982 0.000000
vn 0.528422 0.848982 0.000000
vn 0.528422 0.848982 0.000000
vn 0.528422 0.848982 0.000000
vn 1.000000 0.000000 0.000000
vn 1.000000 0.000000 0.000000
vn 1.000000 0.000000 0.000000
vn 1.000000 0.000000 0.000000
vn 0.000000 1.000000 0.000000
vn 0.000000 1.000000 0.000000
vn 0.000000 1.000000 0.000000
vn 0.000000 1.000000 0.000000
vn 0.659954 -0.027589 0.750799
vn 0.659954 -0.027589 0.750799
vn 0.327000 -0.006797 0.945000
vn 0.354560 -0.008445 0.934995
vn 0.211438 0.000000 0.977391
vn 0.211438 0.000000 0.977391
vn -0.000001 0.087691 -0.996148
vn -0.000001 0.087691 -0.996148
vn -0.000001 0.354666 -0.934993
vn -0.000001 0.355037 -0.934852
vn -0.000001 0.087691 0.996148
vn -0.000001 0.087691 0.996148
vn -0.000001 0.355037 0.934852
vn -0.000001 0.354666 0.934993
vn -0.991296 0.131652 0.000000
vn -0.991296 0.131652 0.000000
vn -0.872323 0.488929 0.000000
vn -0.872323 0.488929 0.000000
vn 0.991296 0.131652 0.000000
vn 0.991296 0.131652 0.000000
vn 0.872692 0.488271 0.000000
vn 0.872692 0.488271 0.000000
vn -0.000001 0.000000 -1.000000
vn -0.000001 0.000000 -1.000000
vn -0.000001 0.000000 -1.000000
vn -0.000001 0.000000 -1.000000
vn -0.000001 0.000000 1.000000
vn -0.000001 0.000000 1.000000
vn -0.000001 0.000000 1.000000
vn -0.000001 0.000000 1.000000
vn -1.000000 0.000000 0.000000
vn -1.000000 0.000000 0.000000
vn -1.000000 0.000000 0.000000
vn -1.000000 0.000000 0.000000
vn 1.000000 0.000000 0.000000
vn 1.000000 0.000000 0.000000
vn 1.000000 0.000000 0.000000
vn 1.000000 0.000000 0.000000
vn -0.000001 0.571525 0.820585
vn -0.000001 0.571525 0.820585
vn -0.000001 0.600677 0.799492
vn -0.000001 0.600677 0.799492
vn -0.000001 0.571525 -0.820585
vn -0.000001 0.571525 -0.820585
vn -0.000001 0.600677 -0.799492
vn -0.000001 0.600677 -0.799492
vn -1.000000 -0.000003 0.000000
vn -1.000000 -0.000003 0.000000
vn -1.000000 -0.000003 0.000000
vn -1.000000 -0.000003 0.000000
vn -1.000000 -0.000003 0.000000
vn -1.000000 -0.000003 0.000000
vn 0.671896 0.583851 -0.455712
vn 0.650466 -0.549073 -0.524798
vn 0.650466 -0.549073 -0.524798
vn 0.650466 -0.549073 -0.524798
vn 0.587475 0.583850 0.560350
vn -0.263683 -0.805319 -0.530973
vn -0.361890 -0.009609 -0.932171
vn 0.124009 -0.013377 -0.992191
vn 0.170546 -0.827841 -0.534409
vn -0.364959 0.784507 -0.501352
vn 0.044507 0.847619 -0.528735
vn -0.427666 0.903937 -0.000000
vn -0.000000 1.000000 -0.000000
vn -0.364959 0.784507 0.501352
vn 0.044507 0.847619 0.528735
vn -0.361890 -0.009609 0.932171
vn 0.124009 -0.013377 0.992191
vn -0.263683 -0.805319 0.530973
vn 0.170546 -0.827841 0.534409
vn -0.227129 -0.973865 -0.000001
vn 0.164064 -0.986450 -0.000001
vn -1.000000 -0.000000 0.000000
vn 0.092944 0.879098 -0.467492
vn -0.000000 1.000000 -0.000000
vn -0.000000 1.000000 -0.000000
vn 0.093745 0.907865 -0.408648
vn 0.280791 0.011699 -0.959698
vn 0.307702 0.046938 -0.950324
vn 0.353294 -0.741182 -0.570817
vn 0.391902 -0.693021 -0.605091
vn 0.338075 -0.941119 -0.000000
vn 0.396334 -0.918107 -0.000001
vn 0.353294 -0.741182 0.570818
vn 0.391868 -0.693059 0.605069
vn 0.280791 0.011699 0.959698
vn 0.307616 0.046972 0.950351
vn 0.092944 0.879098 0.467492
vn 0.093689 0.907906 0.408570
vn 0.075677 0.857382 -0.509086
vn -0.000000 1.000000 -0.000000
vn 0.220067 -0.001055 -0.975484
vn 0.301094 -0.785337 -0.540915
vn 0.288758 -0.957402 -0.000000
vn 0.301094 -0.785337 0.540915
vn 0.220067 -0.001055 0.975484
vn 0.075677 0.857382 0.509086
vn 0.791471 -0.438961 -0.425307
vn 0.933459 -0.248547 -0.258609
vn 0.925702 -0.378253 0.000000
vn 0.807172 -0.590317 0.000000
vn 0.737099 0.028943 -0.675165
vn 0.954067 0.038646 -0.297092
vn 0.508809 0.760099 -0.404183
vn 0.870357 0.475325 -0.128626
vn 0.142904 0.989726 -0.004644
vn 0.901295 0.433187 -0.004169
vn 0.507770 0.757452 0.410410
vn 0.860168 0.492048 0.134162
vn 0.735074 0.026118 0.677484
vn 0.955642 0.030581 0.292941
vn 0.792083 -0.438316 0.424834
vn 0.933509 -0.246865 0.260038
vn 1.000000 0.000003 0.000000
s 1
g Anvil:polySurface5
usemtl Anvil:initialShadingGroup
f 1/120/1 2/117/2 15/116/3 16/121/4
f 2/117/2 1/120/1 4/124/5 3/125/6
s off
f 3/26/7 4/31/8 55/32/9 56/27/10
f 5/57/11 6/47/12 53/50/13 54/58/14
s 1
f 6/132/15 5/128/16 8/129/17 7/133/18
f 7/133/18 8/129/17 34/136/19 33/137/20
s 2
f 9/75/21 10/144/22 28/145/23 27/142/24
s off
f 10/73/25 9/75/26 12/76/27 11/74/28
s 3
f 11/146/29 12/76/30 14/143/31 13/147/32
f 13/147/32 14/143/31 30/2/33 29/149/34
s 4
f 17/122/35 18/119/36 19/118/37 20/123/38
f 20/123/38 19/118/37 22/126/39 21/127/40
s off
f 21/35/41 22/25/42 58/28/43 57/36/44
f 23/48/45 24/53/46 59/54/47 60/49/48
s 4
f 24/130/49 23/134/50 25/135/51 26/131/52
f 26/131/52 25/135/51 37/138/53 38/139/54
s 2
f 27/142/24 28/145/23 36/148/55 35/5/56
s off
f 29/1/57 30/2/58 32/3/59 31/4/60
f 31/4/61 32/3/62 41/151/63 40/153/64
s 1
f 33/137/20 34/136/19 43/140/65 42/17/66
s off
f 35/5/67 36/9/68 49/10/69 48/6/70
s 4
f 38/139/54 37/138/53 46/18/71 45/141/72
s 6
f 39/15/73 41/21/74 52/22/75 51/16/76
s off
f 40/19/77 39/15/78 44/14/79 43/20/80
s 4
f 42/17/81 44/14/82 47/13/83 46/18/71
s off
f 45/23/84 47/13/85 51/16/86 50/24/87
s 7
f 48/6/88 49/10/89 50/152/90 52/150/91
s 8
f 54/58/92 53/50/93 81/55/94 82/60/95
s 9
f 56/27/96 55/32/97 83/37/98 84/34/99
f 57/36/100 58/28/101 77/33/102 78/38/103
s 8
f 60/49/104 59/54/105 79/59/106 80/56/107
f 61/106/108 62/107/109 82/108/95 81/109/94
s off
f 62/67/110 61/62/111 64/64/112 63/68/113
s 9
f 65/43/114 66/111/115 84/112/99 83/110/98
s off
f 66/39/116 65/43/117 68/44/118 67/41/119
s 9
f 69/113/120 70/45/121 78/114/103 77/115/102
s off
f 70/45/122 69/40/123 72/42/124 71/46/125
s 8
f 73/65/126 74/61/127 80/56/107 79/59/106
s off
f 74/61/128 73/65/129 76/66/130 75/63/131
s 1
f 5/128/16 4/124/5 1/120/1 8/129/17
s 12
f 11/146/132 13/147/133 1/120/134 16/121/135
s 13
f 15/116/136 2/117/137 19/118/138 18/119/139
s 4
f 20/123/38 21/127/40 24/130/49 26/131/52
s 13
f 19/29/138 2/30/137 3/26/140 22/25/141
s 14
f 9/75/142 27/142/143 14/143/144 12/76/145
s 15
f 17/186/146 20/187/147 28/145/148 10/144/149
s 12
f 1/120/134 13/147/133 29/149/150 8/129/151
s off
f 7/51/152 25/52/153 23/48/154 6/47/155
s 16
f 8/7/156 29/1/157 31/4/158 34/8/159
s 14
f 14/143/144 27/142/143 35/5/160 30/2/161
s 17
f 25/135/162 7/133/163 33/137/164 37/138/165
s 15
f 28/145/148 20/187/147 26/188/166 36/148/167
s 16
f 34/189/159 31/190/158 40/19/168 43/20/169
s 17
f 37/138/165 33/137/164 42/17/170 46/18/171
s off
f 30/2/172 35/5/173 48/6/174 32/3/175
f 47/13/176 44/14/177 39/15/178 51/16/179
f 32/3/180 48/6/181 52/150/182 41/151/183
s 18
f 36/9/184 26/11/185 38/12/186 49/10/187
f 49/191/187 38/192/186 45/23/188 50/24/189
s 19
f 4/193/190 5/194/191 54/195/192 55/196/193
s 20
f 24/53/194 21/197/195 57/198/196 59/54/197
s 9
f 22/25/198 3/26/199 56/27/200 58/28/201
s 8
f 6/47/202 23/48/203 60/49/204 53/50/205
s off
f 65/43/206 62/107/207 63/199/208 68/44/209
f 73/65/210 70/45/211 71/46/212 76/66/213
f 69/40/214 66/39/215 67/41/216 72/42/217
f 61/62/218 74/61/219 75/63/220 64/64/221
s 20
f 79/59/222 78/114/223 70/45/224 73/65/225
s 8
f 81/55/94 80/56/107 74/61/127 61/62/108
s 19
f 83/110/226 82/108/227 62/107/228 65/43/229
s 9
f 77/33/102 84/34/99 66/39/115 69/40/120
s 20
f 79/59/222 59/54/197 57/198/196 78/114/223
s 8
f 81/55/94 53/50/205 60/49/204 80/56/107
s 19
f 83/110/226 55/196/193 54/195/192 82/108/227
s 9
f 77/33/102 58/28/201 56/27/200 84/34/99
s off
f 16/69/230 15/70/231 18/71/232 17/72/233 10/73/234 11/74/235
s 6
f 39/15/73 40/19/236 41/21/74
s off
f 42/17/237 43/20/238 44/14/239
s 4
f 45/23/72 46/18/71 47/13/83
s 7
f 50/24/90 51/16/240 52/22/91
s 23
usemtl initialShadingGroup
f 85/177/241 86/200/242 120/201/243 121/178/244
f 86/200/242 87/154/245 119/156/246 120/201/243
f 87/154/245 88/83/247 118/155/248 119/156/246
f 88/83/247 89/85/249 125/157/250 118/155/248
f 89/207/249 90/208/251 124/209/252 125/210/250
f 90/208/251 91/173/253 123/176/254 124/209/252
f 91/173/253 92/174/255 122/175/256 123/176/254
f 92/174/255 85/177/241 121/178/244 122/175/256
f 86/77/242 85/78/241 101/79/257
f 87/81/245 86/77/242 101/79/257
f 88/83/247 87/81/245 101/79/257
f 89/85/249 88/83/247 101/79/257
f 90/84/251 89/85/249 101/79/257
f 91/82/253 90/84/251 101/79/257
f 92/80/255 91/82/253 101/79/257
f 85/78/241 92/80/255 101/79/257
f 103/162/258 102/161/259 96/164/260 95/165/261
f 104/203/262 103/162/258 95/165/261 94/204/263
f 105/184/264 104/203/262 94/204/263 93/185/265
f 106/182/266 105/184/264 93/185/265 100/94/267
f 107/183/268 106/182/266 100/94/267 99/102/269
f 108/213/270 107/183/268 99/102/269 98/215/271
f 109/214/272 108/213/270 98/215/271 97/216/273
f 102/161/259 109/163/272 97/166/273 96/164/260
f 111/159/274 110/158/275 102/161/259 103/162/258
f 112/202/276 111/159/274 103/162/258 104/203/262
f 113/181/277 112/202/276 104/203/262 105/184/264
f 114/179/278 113/181/277 105/184/264 106/182/266
f 115/180/279 114/179/278 106/182/266 107/183/268
f 116/211/280 115/180/279 107/183/268 108/213/270
f 117/212/281 116/211/280 108/213/270 109/214/272
f 110/158/275 117/160/281 109/163/272 102/161/259
f 119/156/246 118/155/248 110/158/275 111/159/274
f 120/201/243 119/156/246 111/159/274 112/202/276
f 121/178/244 120/201/243 112/202/276 113/181/277
f 122/175/256 121/178/244 113/181/277 114/179/278
f 123/176/254 122/175/256 114/179/278 115/180/279
f 124/209/252 123/176/254 115/180/279 116/211/280
f 125/210/250 124/209/252 116/211/280 117/212/281
f 118/155/248 125/157/250 117/160/281 110/158/275
f 127/86/282 128/87/283 126/88/284 141/89/285
f 128/87/283 127/86/282 130/90/286 129/91/287
f 129/91/287 130/90/286 132/97/288 131/98/289
f 131/170/289 132/168/288 134/167/290 133/171/291
f 133/171/291 134/167/290 136/169/292 135/172/293
f 135/103/293 136/104/292 138/101/294 137/100/295
f 137/100/295 138/101/294 140/93/296 139/92/297
f 139/92/297 140/93/296 141/89/285 126/88/284
f 128/87/283 129/91/287 126/88/298
f 126/88/298 129/91/287 131/98/289 133/99/291
f 126/88/298 133/99/291 135/103/293 137/100/295
f 137/100/295 139/92/297 126/88/298
f 93/95/265 94/96/263 130/90/286 127/86/282
f 94/204/263 95/165/261 132/205/288 130/206/286
f 95/165/261 96/164/260 134/167/290 132/168/288
f 96/164/260 97/166/273 136/169/292 134/167/290
f 97/216/273 98/215/271 138/217/294 136/218/292
f 98/105/271 99/102/269 140/93/296 138/101/294
f 99/102/269 100/94/267 141/89/285 140/93/296
f 100/94/267 93/95/265 127/86/282 141/89/285
