# This file uses centimeters as units for non-parametric coordinates.

mtllib Hammer.mtl
g default
v 3.232857 39.826072 -2.146181
v 0.725309 39.826072 -2.971289
v -1.782240 39.826072 -2.146181
v -2.820901 39.826072 -0.154193
v -1.782240 39.826072 1.837794
v 0.725309 39.826072 2.662903
v 3.232858 39.826072 1.837794
v 4.271519 39.826072 -0.154193
v 0.185633 -1.477350 -0.154193
v 0.802405 39.826072 -0.154193
v 2.693181 -0.993216 -2.146181
v 2.354899 -1.477350 -1.747823
v 0.185633 -0.993216 -2.971289
v 0.185633 -1.477350 -2.461619
v -2.321917 -0.993216 -2.146181
v -1.983634 -1.477350 -1.747823
v -3.360577 -0.993216 -0.154193
v -2.814583 -1.477350 -0.154193
v -2.321917 -0.993216 1.837794
v -1.983634 -1.477350 1.439437
v 0.185633 -0.993216 2.662903
v 0.185633 -1.477350 2.153233
v 2.693182 -0.993216 1.837794
v 2.354899 -1.477350 1.439437
v 3.731843 -0.993216 -0.154193
v 3.185848 -1.477350 -0.154193
v 0.725309 22.109503 -2.515135
v 2.826826 22.109503 -1.823631
v 3.697304 22.109503 -0.154193
v 2.826826 22.109503 1.515245
v 0.725309 22.109503 2.206748
v -1.376209 22.109503 1.515244
v -2.246685 22.109503 -0.154193
v -1.376209 22.109503 -1.823631
v 0.339826 10.864007 -2.515135
v 2.441343 10.864007 -1.823631
v 3.311821 10.864007 -0.154193
v 2.441343 10.864007 1.515245
v 0.339826 10.864007 2.206748
v -1.761692 10.864007 1.515244
v -2.632169 10.864007 -0.154193
v -1.761692 10.864007 -1.823631
v 3.872760 33.185631 3.985747
v 3.879087 43.841100 4.665754
v 3.879087 43.841100 -4.665754
v 3.873018 33.185633 -3.986201
v -10.767070 32.970394 -4.462965
v -10.769171 32.969888 4.465962
v -10.769171 44.429194 4.465962
v -10.769171 44.429194 -4.465962
v -11.357546 33.535492 -4.556780
v -11.357546 33.535492 4.556780
v -11.357546 43.863590 4.556780
v -11.357546 43.863590 -4.556780
v 13.331932 37.910640 -3.965012
v 13.336287 37.912903 3.972339
v 14.221718 43.489732 -3.937471
v 13.691303 43.527269 4.660308
vt 0.081092 0.152161
vt 0.115015 0.152360
vt 0.113832 0.354285
vt 0.085402 0.354119
vt 0.087925 0.143956
vt 0.115064 0.144115
vt 0.144043 0.152479
vt 0.143614 0.354461
vt 0.084279 0.545627
vt 0.112710 0.545794
vt 0.142203 0.144274
vt 0.144570 0.546015
vt 0.110941 0.847503
vt 0.077018 0.847304
vt 0.140196 0.847654
vt 0.220244 0.153954
vt 0.249871 0.153936
vt 0.249871 0.355865
vt 0.218986 0.355827
vt 0.221864 0.145691
vt 0.250738 0.145691
vt 0.279498 0.153954
vt 0.280756 0.355827
vt 0.220503 0.547383
vt 0.249871 0.547376
vt 0.277010 0.145691
vt 0.279239 0.547383
vt 0.251576 0.849088
vt 0.216728 0.849137
vt 0.281308 0.849135
vt 0.674092 0.067425
vt 0.785367 0.057937
vt 0.792198 0.136136
vt 0.670565 0.147007
vt 0.964491 0.482853
vt 0.975267 0.610628
vt 0.830464 0.622840
vt 0.819688 0.495065
vt 0.972525 0.483500
vt 0.983090 0.608686
vt 0.822427 0.622236
vt 0.811865 0.497007
vt 0.275227 0.880424
vt 0.268005 0.924796
vt 0.226040 0.901510
vt 0.235846 0.956210
vt 0.197588 0.956264
vt 0.175642 0.924926
vt 0.182864 0.880554
vt 0.262825 0.082218
vt 0.269127 0.120595
vt 0.227981 0.100386
vt 0.277806 0.122567
vt 0.270521 0.078205
vt 0.234966 0.055081
vt 0.238317 0.046836
vt 0.204358 0.055081
vt 0.193138 0.118554
vt 0.186836 0.080177
vt 0.185442 0.122567
vt 0.217645 0.153936
vt 0.178157 0.078205
vt 0.432311 0.262852
vt 0.533283 0.285184
vt 0.514554 0.489805
vt 0.384699 0.463373
vt 0.579712 0.153347
vt 0.459119 0.132492
vt 0.674140 0.285089
vt 0.803623 0.281380
vt 0.809706 0.487464
vt 0.682632 0.491109
vt 0.317897 0.153186
vt 0.318993 0.355130
vt 0.360594 0.152399
vt 0.354776 0.354470
vt 0.315959 0.546729
vt 0.351741 0.546070
vt 0.321519 0.848393
vt 0.364215 0.847606
vt 0.181844 0.153186
vt 0.180749 0.355130
vt 0.183783 0.546730
vt 0.178223 0.848393
vt 0.529261 0.499456
vt 0.674579 0.499456
vt 0.951387 0.268902
vt 0.971716 0.473906
vt 0.873957 0.141871
vn 0.000000 1.000000 -0.000001
vn 0.000000 1.000000 -0.000000
vn 0.000000 1.000000 -0.000000
vn 0.000000 1.000000 0.000000
vn 0.000000 1.000000 0.000000
vn 0.000000 1.000000 -0.000001
vn 0.000000 1.000000 -0.000001
vn 0.000000 1.000000 -0.000000
vn 0.000000 1.000000 0.000000
vn 0.221016 -0.707107 -0.671679
vn 0.221016 -0.707107 -0.671679
vn 0.000000 -0.725037 -0.688710
vn -0.000000 -0.725037 -0.688710
vn 0.626993 -0.707106 -0.326926
vn 0.626993 -0.707106 -0.326926
vn 0.626993 -0.707106 -0.326926
vn 0.626993 -0.707106 -0.326926
vn -0.221016 -0.707107 -0.671678
vn -0.221016 -0.707107 -0.671678
vn -0.626992 -0.707107 -0.326926
vn -0.626992 -0.707107 -0.326926
vn -0.626992 -0.707107 -0.326926
vn -0.626992 -0.707107 -0.326926
vn -0.626992 -0.707107 0.326926
vn -0.626992 -0.707107 0.326926
vn -0.626992 -0.707107 0.326926
vn -0.626992 -0.707107 0.326926
vn -0.221016 -0.707107 0.671679
vn -0.221016 -0.707107 0.671679
vn -0.000000 -0.725037 0.688710
vn -0.000000 -0.725037 0.688710
vn 0.221016 -0.707107 0.671678
vn 0.221016 -0.707107 0.671678
vn 0.626992 -0.707107 0.326926
vn 0.626992 -0.707107 0.326926
vn 0.626992 -0.707107 0.326926
vn 0.626992 -0.707107 0.326926
vn 0.312399 0.032461 -0.949396
vn 0.312399 0.032461 -0.949396
vn 0.312538 0.012836 -0.949819
vn 0.312540 0.012305 -0.949825
vn -0.312306 0.040574 -0.949115
vn -0.312306 0.040574 -0.949115
vn -0.312449 0.027059 -0.949549
vn -0.312453 0.026581 -0.949561
vn -0.885389 0.054391 -0.461659
vn -0.885389 0.054391 -0.461659
vn -0.885864 0.043432 -0.461907
vn -0.885873 0.043214 -0.461911
vn -0.885389 0.054391 0.461659
vn -0.885389 0.054391 0.461659
vn -0.885873 0.043214 0.461911
vn -0.885864 0.043432 0.461907
vn -0.312306 0.040574 0.949115
vn -0.312306 0.040574 0.949115
vn -0.312453 0.026581 0.949561
vn -0.312449 0.027059 0.949549
vn 0.312399 0.032461 0.949396
vn 0.312399 0.032461 0.949396
vn 0.312540 0.012305 0.949825
vn 0.312537 0.012836 0.949819
vn 0.886264 0.031394 0.462115
vn 0.886264 0.031394 0.462115
vn 0.886698 0.002752 0.462341
vn 0.886697 0.003042 0.462341
vn 0.886264 0.031394 -0.462116
vn 0.886264 0.031394 -0.462116
vn 0.886697 0.003042 -0.462341
vn 0.886698 0.002752 -0.462342
vn 0.000000 -1.000000 0.000000
vn 0.000000 -1.000000 0.000000
vn 0.000000 -1.000000 0.000000
vn 0.000000 -1.000000 0.000000
vn 0.000000 -1.000000 0.000000
vn 0.000000 -1.000000 0.000000
vn 0.000000 -1.000000 0.000000
vn 0.000000 -1.000000 0.000000
vn 0.000000 -1.000000 0.000000
vn 0.312504 -0.019514 -0.949716
vn 0.312505 -0.019366 -0.949719
vn 0.312470 -0.024450 -0.949613
vn 0.312470 -0.024450 -0.949613
vn 0.886320 -0.029326 -0.462144
vn 0.886319 -0.029336 -0.462144
vn 0.886335 -0.028727 -0.462153
vn 0.886335 -0.028727 -0.462153
vn 0.886319 -0.029336 0.462144
vn 0.886320 -0.029326 0.462144
vn 0.886335 -0.028727 0.462152
vn 0.886335 -0.028727 0.462152
vn 0.312505 -0.019366 0.949719
vn 0.312504 -0.019514 0.949716
vn 0.312470 -0.024450 0.949613
vn 0.312470 -0.024450 0.949613
vn -0.312543 -0.011478 0.949834
vn -0.312542 -0.011774 0.949831
vn -0.312470 -0.024450 0.949613
vn -0.312470 -0.024450 0.949613
vn -0.886679 -0.007052 0.462332
vn -0.886678 -0.007246 0.462331
vn -0.886335 -0.028727 0.462152
vn -0.886335 -0.028727 0.462152
vn -0.886678 -0.007246 -0.462331
vn -0.886679 -0.007052 -0.462332
vn -0.886335 -0.028727 -0.462152
vn -0.886335 -0.028727 -0.462152
vn -0.312542 -0.011774 -0.949831
vn -0.312543 -0.011478 -0.949834
vn -0.312470 -0.024450 -0.949613
vn -0.312470 -0.024450 -0.949613
vn 0.191974 -0.981400 -0.000012
vn 0.192001 -0.981395 -0.000012
vn -0.028988 -0.999580 -0.000033
vn -0.029049 -0.999578 -0.000033
vn 0.011981 -0.044259 0.998948
vn 0.012685 -0.047657 0.998783
vn 0.012159 -0.030104 0.999473
vn 0.012111 -0.030114 0.999473
vn 0.020256 -0.084214 0.996242
vn 0.020256 -0.084214 0.996242
vn 0.446875 -0.894596 0.000012
vn 0.446875 -0.894596 0.000012
vn 0.037242 0.999306 -0.000452
vn 0.037320 0.999303 -0.000440
vn -0.000330 1.000000 0.000000
vn -0.000330 1.000000 0.000000
vn 0.033026 0.999454 -0.001116
vn 0.033026 0.999454 -0.001116
vn 0.021218 -0.034628 -0.999175
vn 0.018814 -0.033881 -0.999249
vn 0.012053 -0.030226 -0.999470
vn 0.012095 -0.030217 -0.999470
vn 0.047200 -0.042685 -0.997973
vn 0.047200 -0.042685 -0.997973
vn 0.154735 -0.000121 -0.987956
vn 0.154735 -0.000121 -0.987956
vn -0.692215 -0.721692 -0.000101
vn -0.692214 -0.721692 -0.000101
vn 0.152548 0.000000 0.988296
vn 0.152548 0.000000 0.988296
vn -0.693019 0.720920 0.000000
vn -0.693019 0.720920 0.000000
vn 0.993143 -0.112483 0.031867
vn 0.993143 -0.112483 0.031867
vn 0.993142 -0.112483 0.031867
vn 0.993143 -0.112483 0.031867
vn -1.000000 0.000000 0.000000
vn -1.000000 0.000000 0.000000
vn -1.000000 0.000000 0.000000
vn -1.000000 0.000000 0.000000
s 1
g pCylinder2
usemtl initialShadingGroup
f 1/43/1 2/44/2 10/45/3
f 2/44/2 3/46/4 10/45/3
f 3/46/4 4/47/5 10/45/3
f 4/47/5 5/48/6 10/45/3
f 5/48/6 6/49/7 10/45/3
f 6/49/7 7/29/8 10/45/3
f 7/29/8 8/28/9 10/45/3
f 8/28/9 1/43/1 10/45/3
s 2
f 11/53/10 12/51/11 14/50/12 13/54/13
s off
f 12/26/14 11/22/15 25/17/16 26/21/17
s 2
f 13/54/13 14/50/12 16/55/18 15/56/19
s off
f 15/1/20 16/5/21 18/6/22 17/2/23
f 17/2/24 18/6/25 20/11/26 19/7/27
s 3
f 19/62/28 20/59/29 22/58/30 21/60/31
f 21/60/31 22/58/30 24/20/32 23/61/33
s off
f 23/16/34 24/20/35 26/21/36 25/17/37
s 4
f 11/22/38 13/73/39 35/74/40 36/23/41
s 5
f 13/73/42 15/75/43 42/76/44 35/74/45
s 6
f 15/1/46 17/2/47 41/3/48 42/4/49
s 7
f 17/2/50 19/7/51 40/8/52 41/3/53
s 8
f 19/7/54 21/81/55 39/82/56 40/8/57
s 9
f 21/81/58 23/16/59 38/19/60 39/82/61
s 10
f 23/16/62 25/17/63 37/18/64 38/19/65
s 11
f 25/17/66 11/22/67 36/23/68 37/18/69
s 12
f 14/50/70 12/51/71 9/52/72
f 16/55/73 14/50/70 9/52/72
f 18/57/74 16/55/73 9/52/72
f 20/59/75 18/57/74 9/52/72
f 22/58/76 20/59/75 9/52/72
f 24/20/77 22/58/76 9/52/72
f 26/21/78 24/20/77 9/52/72
f 12/51/71 26/21/78 9/52/72
s 4
f 28/27/79 27/77/80 2/79/81 1/30/82
s 11
f 29/25/83 28/27/84 1/30/85 8/28/86
s 10
f 30/24/87 29/25/88 8/28/89 7/29/90
s 9
f 31/83/91 30/24/92 7/29/93 6/84/94
s 8
f 32/12/95 31/83/96 6/84/97 5/15/98
s 7
f 33/10/99 32/12/100 5/15/101 4/13/102
s 6
f 34/9/103 33/10/104 4/13/105 3/14/106
s 5
f 27/77/107 34/78/108 3/80/109 2/79/110
s 4
f 36/23/41 35/74/40 27/77/80 28/27/79
s 11
f 29/25/83 37/18/69 36/23/68 28/27/84
s 10
f 30/24/87 38/19/65 37/18/64 29/25/88
s 9
f 31/83/91 39/82/61 38/19/60 30/24/92
s 8
f 32/12/95 40/8/57 39/82/56 31/83/96
s 7
f 33/10/99 41/3/53 40/8/52 32/12/100
s 6
f 34/9/103 42/4/49 41/3/48 33/10/104
s 5
f 27/77/107 35/74/45 42/76/44 34/78/108
s 13
f 46/63/111 43/64/112 48/65/113 47/66/114
s 14
f 43/64/115 44/69/116 49/72/117 48/65/118
f 44/69/116 43/64/115 56/67/119 58/34/120
s 13
f 56/67/121 43/64/112 46/63/111 55/68/122
s 15
f 44/69/123 45/70/124 50/71/125 49/72/126
f 45/70/124 44/69/123 58/34/127 57/33/128
s 16
f 45/70/129 46/87/130 47/88/131 50/71/132
f 46/87/130 45/70/129 57/33/133 55/89/134
f 47/88/131 51/35/135 54/38/136 50/71/132
s 13
f 51/35/137 47/39/114 48/40/113 52/36/138
s 14
f 52/85/139 48/65/118 49/72/117 53/86/140
s 15
f 53/37/141 49/41/126 50/42/125 54/38/142
s off
f 56/31/143 55/32/144 57/33/145 58/34/146
f 51/35/147 52/36/148 53/37/149 54/38/150
