# This file uses centimeters as units for non-parametric coordinates.

mtllib Lantern.mtl
g default
v -190.426224 598.032349 10.333580
v -170.662308 597.841980 10.578850
v -190.180862 598.039551 -9.431221
v -170.416946 597.849243 -9.185951
v -168.303909 623.086975 12.759636
v -168.005356 623.095764 -11.289040
v -192.052902 623.327332 -11.587471
v -192.351456 623.318542 12.461174
v -193.762283 622.876282 13.833000
v -166.936325 622.617981 14.165916
v -194.376419 624.849731 14.451530
v -166.299850 624.579346 14.799980
v -194.027878 624.859985 -13.626350
v -165.951279 624.589600 -13.277901
v -193.429245 622.886108 -12.994209
v -166.603287 622.627808 -12.661293
v -188.515976 632.510132 8.810661
v -171.869919 632.349792 9.017235
v -171.663254 632.355896 -7.629554
v -188.309311 632.516235 -7.836158
v -191.255966 594.108215 11.104179
v -169.927658 593.902832 11.368889
v -192.116714 595.941956 11.961906
v -169.053299 595.719788 12.248131
v -191.830399 595.950378 -11.102577
v -168.766983 595.728271 -10.816353
v -190.991196 594.116028 -10.225075
v -169.662888 593.910645 -9.960365
v -190.962692 597.561890 10.852257
v -170.148026 597.361389 11.110588
v -169.889603 597.369019 -9.705086
v -190.704300 597.569458 -9.963417
vt 0.625000 0.250000
vt 0.625000 0.500000
vt 0.125000 0.250000
vt 0.375000 0.250000
vt 0.625000 0.250000
vt 0.625000 0.500000
vt 0.125000 0.250000
vt 0.375000 0.250000
vt 0.375000 0.000000
vt 0.625000 0.000000
vt 0.625000 0.250000
vt 0.375000 0.250000
vt 0.375000 0.250000
vt 0.625000 0.250000
vt 0.625000 0.500000
vt 0.375000 0.500000
vt 0.375000 0.500000
vt 0.625000 0.500000
vt 0.625000 0.750000
vt 0.375000 0.750000
vt 0.625000 1.000000
vt 0.375000 1.000000
vt 0.875000 0.000000
vt 0.875000 0.250000
vt 0.125000 0.000000
vt 0.125000 0.250000
vt 0.375000 0.000000
vt 0.625000 0.000000
vt 0.625000 0.250000
vt 0.375000 0.250000
vt 0.375000 0.250000
vt 0.625000 0.250000
vt 0.625000 0.500000
vt 0.375000 0.500000
vt 0.375000 0.500000
vt 0.625000 0.500000
vt 0.625000 0.750000
vt 0.375000 0.750000
vt 0.625000 1.000000
vt 0.375000 1.000000
vt 0.875000 0.000000
vt 0.875000 0.250000
vt 0.125000 0.000000
vt 0.125000 0.250000
vn 0.009623 0.999954 0.000486
vn 0.009623 0.999954 0.000486
vn 0.009623 0.999954 0.000486
vn 0.009623 0.999954 0.000486
vn 0.995490 -0.094064 0.012324
vn 0.995490 -0.094064 0.012324
vn 0.995490 -0.094064 0.012324
vn 0.995490 -0.094064 0.012324
vn 0.011555 -0.084105 -0.996390
vn 0.011555 -0.084105 -0.996390
vn 0.011555 -0.084105 -0.996390
vn 0.011555 -0.084105 -0.996390
vn -0.997116 -0.074874 -0.012406
vn -0.997116 -0.074874 -0.012406
vn -0.997116 -0.074874 -0.012406
vn -0.997116 -0.074874 -0.012406
vn -0.013182 -0.084834 0.996308
vn -0.013182 -0.084834 0.996308
vn -0.013182 -0.084834 0.996308
vn -0.013182 -0.084834 0.996308
vn -0.009624 -0.999954 -0.000488
vn -0.009624 -0.999954 -0.000488
vn -0.009624 -0.999954 -0.000488
vn -0.009624 -0.999954 -0.000488
vn -0.014745 -0.303233 0.952802
vn -0.014745 -0.303233 0.952802
vn -0.014745 -0.303233 0.952802
vn -0.014745 -0.303233 0.952802
vn 0.009626 0.999954 0.000485
vn 0.009626 0.999954 0.000485
vn 0.009626 0.999954 0.000485
vn 0.009626 0.999954 0.000485
vn 0.008915 -0.302527 -0.953099
vn 0.008915 -0.302527 -0.953099
vn 0.008915 -0.302527 -0.953099
vn 0.008915 -0.302527 -0.953099
vn -0.009622 -0.999954 -0.000486
vn -0.009622 -0.999954 -0.000486
vn -0.009622 -0.999954 -0.000486
vn -0.009622 -0.999954 -0.000486
vn 0.949989 -0.312064 0.011679
vn 0.949989 -0.312064 0.011679
vn 0.949989 -0.312064 0.011679
vn 0.949989 -0.312064 0.011679
vn -0.955822 -0.293704 -0.011972
vn -0.955821 -0.293704 -0.011972
vn -0.955822 -0.293704 -0.011972
vn -0.955822 -0.293704 -0.011972
vn -0.004243 0.595049 0.803678
vn -0.004243 0.595049 0.803678
vn -0.004243 0.595049 0.803678
vn -0.004243 0.595049 0.803678
vn 0.809081 0.587607 0.010260
vn 0.809081 0.587607 0.010260
vn 0.809081 0.587607 0.010260
vn 0.809081 0.587607 0.010260
vn 0.015704 0.595637 -0.803100
vn 0.015704 0.595637 -0.803100
vn 0.015704 0.595637 -0.803100
vn 0.015704 0.595637 -0.803100
vn -0.797624 0.603078 -0.009681
vn -0.797624 0.603078 -0.009681
vn -0.797624 0.603078 -0.009681
vn -0.797624 0.603078 -0.009681
vn -0.015343 -0.429541 0.902917
vn -0.015343 -0.429541 0.902917
vn -0.015343 -0.429541 0.902917
vn -0.015343 -0.429541 0.902917
vn 0.009625 0.999954 0.000483
vn 0.009625 0.999954 0.000483
vn 0.009625 0.999954 0.000483
vn 0.009625 0.999954 0.000483
vn 0.007080 -0.428880 -0.903334
vn 0.007080 -0.428880 -0.903334
vn 0.007080 -0.428880 -0.903334
vn 0.007080 -0.428880 -0.903334
vn -0.009623 -0.999954 -0.000486
vn -0.009623 -0.999954 -0.000486
vn -0.009623 -0.999954 -0.000486
vn -0.009623 -0.999954 -0.000486
vn 0.898950 -0.437913 0.010998
vn 0.898950 -0.437913 0.010998
vn 0.898950 -0.437913 0.010998
vn 0.898950 -0.437913 0.010998
vn -0.907218 -0.420506 -0.011415
vn -0.907218 -0.420506 -0.011415
vn -0.907218 -0.420506 -0.011415
vn -0.907218 -0.420506 -0.011415
vn -0.004753 0.567403 0.823426
vn -0.004753 0.567403 0.823426
vn -0.004753 0.567403 0.823426
vn -0.004753 0.567403 0.823426
vn 0.828559 0.559804 0.010491
vn 0.828559 0.559804 0.010491
vn 0.828559 0.559804 0.010491
vn 0.828559 0.559804 0.010491
vn 0.015682 0.568045 -0.822848
vn 0.015682 0.568045 -0.822848
vn 0.015682 0.568045 -0.822848
vn 0.015682 0.568045 -0.822848
vn -0.817627 0.575662 -0.009941
vn -0.817627 0.575662 -0.009941
vn -0.817627 0.575662 -0.009941
vn -0.817627 0.575662 -0.009941
s off
g polySurface3444
usemtl Tower4:initialShadingGroup
f 5/1/1 6/2/2 7/3/3 8/4/4
f 2/5/5 4/6/6 6/2/7 5/1/8
f 4/6/9 3/7/10 7/3/11 6/2/12
f 3/7/13 1/8/14 8/4/15 7/3/16
f 1/8/17 2/5/18 5/1/19 8/4/20
f 2/5/21 1/8/22 3/7/23 4/6/24
f 9/9/25 10/10/26 12/11/27 11/12/28
f 17/13/29 18/14/30 19/15/31 20/16/32
f 13/17/33 14/18/34 16/19/35 15/20/36
f 15/20/37 16/19/38 10/21/39 9/22/40
f 10/10/41 16/23/42 14/24/43 12/11/44
f 15/25/45 9/9/46 11/12/47 13/26/48
f 11/12/49 12/11/50 18/14/51 17/13/52
f 12/11/53 14/18/54 19/15/55 18/14/56
f 14/18/57 13/17/58 20/16/59 19/15/60
f 13/17/61 11/12/62 17/13/63 20/16/64
f 21/27/65 22/28/66 24/29/67 23/30/68
f 29/31/69 30/32/70 31/33/71 32/34/72
f 25/35/73 26/36/74 28/37/75 27/38/76
f 27/38/77 28/37/78 22/39/79 21/40/80
f 22/28/81 28/41/82 26/42/83 24/29/84
f 27/43/85 21/27/86 23/30/87 25/44/88
f 23/30/89 24/29/90 30/32/91 29/31/92
f 24/29/93 26/36/94 31/33/95 30/32/96
f 26/36/97 25/35/98 32/34/99 31/33/100
f 25/35/101 23/30/102 29/31/103 32/34/104
