# This file uses centimeters as units for non-parametric coordinates.

mtllib Ladder.mtl
g default
v -39.478465 -5.531436 21.717408
v -50.495311 -3.610934 21.717408
v 16.586110 316.075605 21.717408
v 5.569387 317.996137 21.717408
v 16.586110 316.075605 32.900269
v 5.569387 317.996137 32.900269
v -39.478465 -5.531436 32.900269
v -50.495311 -3.610934 32.900269
v -39.356883 10.835523 35.022461
v -45.071727 11.831769 35.022461
v -39.356883 10.835523 -34.717773
v -45.071727 11.831769 -34.717773
v -37.436229 21.852216 -34.717773
v -43.151072 22.848462 -34.717773
v -37.436229 21.852216 35.022461
v -43.151072 22.848462 35.022461
v -39.478465 -5.531436 -31.673950
v -50.495311 -3.610934 -31.673950
v 16.586110 316.075605 -31.673950
v 5.569387 317.996137 -31.673950
v 16.586110 316.075605 -20.491089
v 5.569387 317.996137 -20.491089
v -39.478465 -5.531436 -20.491089
v -50.495311 -3.610934 -20.491089
v -34.804149 36.950666 35.022461
v -40.518992 37.946912 35.022461
v -34.804149 36.950666 -34.717773
v -40.518992 37.946912 -34.717773
v -32.883738 47.967359 -34.717773
v -38.598582 48.963605 -34.717773
v -32.883738 47.967359 35.022461
v -38.598582 48.963605 35.022461
v -30.410594 62.154187 35.022461
v -36.125438 63.150434 35.022461
v -30.410594 62.154187 -34.717773
v -36.125438 63.150434 -34.717773
v -28.490062 73.170880 -34.717773
v -34.205028 74.167127 -34.717773
v -28.490062 73.170880 35.022461
v -34.205028 74.167127 35.022461
v -25.858104 88.269330 35.022461
v -31.572947 89.265607 35.022461
v -25.858104 88.269330 -34.717773
v -31.572947 89.265607 -34.717773
v -23.937571 99.286023 -34.717773
v -29.652293 100.282270 -34.717773
v -23.937571 99.286023 35.022461
v -29.652293 100.282270 35.022461
v -21.526683 113.115400 35.022461
v -27.241527 114.111646 35.022461
v -21.526683 113.115400 -34.717773
v -27.241527 114.111646 -34.717773
v -19.606151 124.132093 -34.717773
v -25.321116 125.128339 -34.717773
v -19.606151 124.132093 35.022461
v -25.321116 125.128339 35.022461
v -16.974193 139.230542 35.022461
v -22.689036 140.226789 35.022461
v -16.974193 139.230542 -34.717773
v -22.689036 140.226789 -34.717773
v -15.053660 150.247235 -34.717773
v -20.768504 151.243482 -34.717773
v -15.053660 150.247235 35.022461
v -20.768504 151.243482 35.022461
v -12.532786 164.707807 35.022461
v -18.247630 165.704023 35.022461
v -12.532786 164.707807 -34.717773
v -18.247630 165.704023 -34.717773
v -10.612254 175.724469 -34.717773
v -16.327098 176.720746 -34.717773
v -10.612254 175.724469 35.022461
v -16.327098 176.720746 35.022461
v -7.980174 190.822919 35.022461
v -13.695018 191.819196 35.022461
v -7.980174 190.822919 -34.717773
v -13.695018 191.819196 -34.717773
v -6.059764 201.839643 -34.717773
v -11.774608 202.835858 -34.717773
v -6.059764 201.839643 35.022461
v -11.774608 202.835858 35.022461
v -3.586619 216.026471 35.022461
v -9.301463 217.022687 35.022461
v -3.586619 216.026471 -34.717773
v -9.301463 217.022687 -34.717773
v -1.666087 227.043134 -34.717773
v -7.380931 228.039411 -34.717773
v -1.666087 227.043134 35.022461
v -7.380931 228.039411 35.022461
v 0.965993 242.141584 35.022461
v -4.748851 243.137860 35.022461
v 0.965993 242.141584 -34.717773
v -4.748851 243.137860 -34.717773
v 2.886525 253.158307 -34.717773
v -2.828319 254.154554 -34.717773
v 2.886525 253.158307 35.022461
v -2.828319 254.154554 35.022461
v 5.297292 266.987653 35.022461
v -0.417552 267.983899 35.022461
v 5.297292 266.987653 -34.717773
v -0.417552 267.983899 -34.717773
v 7.217824 278.004346 -34.717773
v 1.502980 279.000592 -34.717773
v 7.217824 278.004346 35.022461
v 1.502980 279.000592 35.022461
v 9.849904 293.102796 35.022461
v 4.135060 294.099042 35.022461
v 9.849904 293.102796 -34.717773
v 4.135060 294.099042 -34.717773
v 11.770314 304.119489 -34.717773
v 6.055471 305.115735 -34.717773
v 11.770314 304.119489 35.022461
v 6.055471 305.115735 35.022461
vt 0.375000 0.000000
vt 0.625000 0.000000
vt 0.625000 0.250000
vt 0.375000 0.250000
vt 0.625000 0.500000
vt 0.375000 0.500000
vt 0.625000 0.750000
vt 0.375000 0.750000
vt 0.625000 1.000000
vt 0.375000 1.000000
vt 0.875000 0.000000
vt 0.875000 0.250000
vt 0.125000 0.000000
vt 0.125000 0.250000
vt 0.375000 0.000000
vt 0.625000 0.000000
vt 0.625000 0.250000
vt 0.375000 0.250000
vt 0.625000 0.500000
vt 0.375000 0.500000
vt 0.625000 0.750000
vt 0.375000 0.750000
vt 0.625000 1.000000
vt 0.375000 1.000000
vt 0.875000 0.000000
vt 0.875000 0.250000
vt 0.125000 0.000000
vt 0.125000 0.250000
vt 0.375000 0.000000
vt 0.625000 0.000000
vt 0.625000 0.250000
vt 0.375000 0.250000
vt 0.625000 0.500000
vt 0.375000 0.500000
vt 0.625000 0.750000
vt 0.375000 0.750000
vt 0.625000 1.000000
vt 0.375000 1.000000
vt 0.875000 0.000000
vt 0.875000 0.250000
vt 0.125000 0.000000
vt 0.125000 0.250000
vt 0.375000 0.000000
vt 0.625000 0.000000
vt 0.625000 0.250000
vt 0.375000 0.250000
vt 0.625000 0.500000
vt 0.375000 0.500000
vt 0.625000 0.750000
vt 0.375000 0.750000
vt 0.625000 1.000000
vt 0.375000 1.000000
vt 0.875000 0.000000
vt 0.875000 0.250000
vt 0.125000 0.000000
vt 0.125000 0.250000
vt 0.375000 0.000000
vt 0.625000 0.000000
vt 0.625000 0.250000
vt 0.375000 0.250000
vt 0.625000 0.500000
vt 0.375000 0.500000
vt 0.625000 0.750000
vt 0.375000 0.750000
vt 0.625000 1.000000
vt 0.375000 1.000000
vt 0.875000 0.000000
vt 0.875000 0.250000
vt 0.125000 0.000000
vt 0.125000 0.250000
vt 0.375000 0.000000
vt 0.625000 0.000000
vt 0.625000 0.250000
vt 0.375000 0.250000
vt 0.625000 0.500000
vt 0.375000 0.500000
vt 0.625000 0.750000
vt 0.375000 0.750000
vt 0.625000 1.000000
vt 0.375000 1.000000
vt 0.875000 0.000000
vt 0.875000 0.250000
vt 0.125000 0.000000
vt 0.125000 0.250000
vt 0.375000 0.000000
vt 0.625000 0.000000
vt 0.625000 0.250000
vt 0.375000 0.250000
vt 0.625000 0.500000
vt 0.375000 0.500000
vt 0.625000 0.750000
vt 0.375000 0.750000
vt 0.625000 1.000000
vt 0.375000 1.000000
vt 0.875000 0.000000
vt 0.875000 0.250000
vt 0.125000 0.000000
vt 0.125000 0.250000
vt 0.375000 0.000000
vt 0.625000 0.000000
vt 0.625000 0.250000
vt 0.375000 0.250000
vt 0.625000 0.500000
vt 0.375000 0.500000
vt 0.625000 0.750000
vt 0.375000 0.750000
vt 0.625000 1.000000
vt 0.375000 1.000000
vt 0.875000 0.000000
vt 0.875000 0.250000
vt 0.125000 0.000000
vt 0.125000 0.250000
vt 0.375000 0.000000
vt 0.625000 0.000000
vt 0.625000 0.250000
vt 0.375000 0.250000
vt 0.625000 0.500000
vt 0.375000 0.500000
vt 0.625000 0.750000
vt 0.375000 0.750000
vt 0.625000 1.000000
vt 0.375000 1.000000
vt 0.875000 0.000000
vt 0.875000 0.250000
vt 0.125000 0.000000
vt 0.125000 0.250000
vt 0.375000 0.000000
vt 0.625000 0.000000
vt 0.625000 0.250000
vt 0.375000 0.250000
vt 0.625000 0.500000
vt 0.375000 0.500000
vt 0.625000 0.750000
vt 0.375000 0.750000
vt 0.625000 1.000000
vt 0.375000 1.000000
vt 0.875000 0.000000
vt 0.875000 0.250000
vt 0.125000 0.000000
vt 0.125000 0.250000
vt 0.375000 0.000000
vt 0.625000 0.000000
vt 0.625000 0.250000
vt 0.375000 0.250000
vt 0.625000 0.500000
vt 0.375000 0.500000
vt 0.625000 0.750000
vt 0.375000 0.750000
vt 0.625000 1.000000
vt 0.375000 1.000000
vt 0.875000 0.000000
vt 0.875000 0.250000
vt 0.125000 0.000000
vt 0.125000 0.250000
vt 0.375000 0.000000
vt 0.625000 0.000000
vt 0.625000 0.250000
vt 0.375000 0.250000
vt 0.625000 0.500000
vt 0.375000 0.500000
vt 0.625000 0.750000
vt 0.375000 0.750000
vt 0.625000 1.000000
vt 0.375000 1.000000
vt 0.875000 0.000000
vt 0.875000 0.250000
vt 0.125000 0.000000
vt 0.125000 0.250000
vt 0.375000 0.000000
vt 0.625000 0.000000
vt 0.625000 0.250000
vt 0.375000 0.250000
vt 0.625000 0.500000
vt 0.375000 0.500000
vt 0.625000 0.750000
vt 0.375000 0.750000
vt 0.625000 1.000000
vt 0.375000 1.000000
vt 0.875000 0.000000
vt 0.875000 0.250000
vt 0.125000 0.000000
vt 0.125000 0.250000
vt 0.375000 0.000000
vt 0.625000 0.000000
vt 0.625000 0.250000
vt 0.375000 0.250000
vt 0.625000 0.500000
vt 0.375000 0.500000
vt 0.625000 0.750000
vt 0.375000 0.750000
vt 0.625000 1.000000
vt 0.375000 1.000000
vt 0.875000 0.000000
vt 0.875000 0.250000
vt 0.125000 0.000000
vt 0.125000 0.250000
vn -0.000009 0.000000 -1.000000
vn -0.000009 0.000000 -1.000000
vn -0.000009 0.000000 -1.000000
vn -0.000009 0.000000 -1.000000
vn 0.171737 0.985143 0.000000
vn 0.171737 0.985143 0.000000
vn 0.171737 0.985143 0.000000
vn 0.171737 0.985143 0.000000
vn -0.000000 0.000000 1.000000
vn -0.000000 0.000000 1.000000
vn -0.000000 0.000000 1.000000
vn -0.000000 0.000000 1.000000
vn -0.171737 -0.985143 -0.000000
vn -0.171737 -0.985143 -0.000000
vn -0.171737 -0.985143 -0.000000
vn -0.171737 -0.985143 -0.000000
vn -0.985143 0.171737 -0.000000
vn -0.985143 0.171737 -0.000000
vn -0.985143 0.171737 -0.000000
vn -0.985143 0.171737 -0.000000
vn 0.985143 -0.171737 0.000000
vn 0.985143 -0.171737 0.000000
vn 0.985143 -0.171737 0.000000
vn 0.985143 -0.171737 0.000000
vn -0.171736 -0.985143 0.000000
vn -0.171736 -0.985143 0.000000
vn -0.171736 -0.985143 0.000000
vn -0.171736 -0.985143 0.000000
vn 0.000000 0.000000 -1.000000
vn 0.000000 0.000000 -1.000000
vn 0.000000 0.000000 -1.000000
vn 0.000000 0.000000 -1.000000
vn 0.171737 0.985143 0.000000
vn 0.171737 0.985143 0.000000
vn 0.171737 0.985143 0.000000
vn 0.171737 0.985143 0.000000
vn -0.000000 0.000000 1.000000
vn -0.000000 0.000000 1.000000
vn -0.000000 0.000000 1.000000
vn -0.000000 0.000000 1.000000
vn -0.985143 0.171737 -0.000000
vn -0.985143 0.171737 -0.000000
vn -0.985143 0.171737 -0.000000
vn -0.985143 0.171737 -0.000000
vn 0.985143 -0.171737 0.000000
vn 0.985143 -0.171737 0.000000
vn 0.985143 -0.171737 0.000000
vn 0.985143 -0.171737 0.000000
vn -0.000017 0.000000 -1.000000
vn -0.000017 0.000000 -1.000000
vn -0.000017 0.000000 -1.000000
vn -0.000017 0.000000 -1.000000
vn 0.171737 0.985143 0.000000
vn 0.171737 0.985143 0.000000
vn 0.171737 0.985143 0.000000
vn 0.171737 0.985143 0.000000
vn -0.000000 0.000000 1.000000
vn -0.000000 0.000000 1.000000
vn -0.000000 0.000000 1.000000
vn -0.000000 0.000000 1.000000
vn -0.171737 -0.985143 -0.000000
vn -0.171737 -0.985143 -0.000000
vn -0.171737 -0.985143 -0.000000
vn -0.171737 -0.985143 -0.000000
vn -0.985143 0.171737 -0.000000
vn -0.985143 0.171737 -0.000000
vn -0.985143 0.171737 -0.000000
vn -0.985143 0.171737 -0.000000
vn 0.985143 -0.171737 0.000000
vn 0.985143 -0.171737 0.000000
vn 0.985143 -0.171737 0.000000
vn 0.985143 -0.171737 0.000000
vn -0.171736 -0.985143 0.000000
vn -0.171736 -0.985143 0.000000
vn -0.171736 -0.985143 0.000000
vn -0.171736 -0.985143 0.000000
vn 0.000000 0.000000 -1.000000
vn 0.000000 0.000000 -1.000000
vn 0.000000 0.000000 -1.000000
vn 0.000000 0.000000 -1.000000
vn 0.171737 0.985143 0.000000
vn 0.171737 0.985143 0.000000
vn 0.171737 0.985143 0.000000
vn 0.171737 0.985143 0.000000
vn -0.000000 0.000000 1.000000
vn -0.000000 0.000000 1.000000
vn -0.000000 0.000000 1.000000
vn -0.000000 0.000000 1.000000
vn -0.985143 0.171737 -0.000000
vn -0.985143 0.171737 -0.000000
vn -0.985143 0.171737 -0.000000
vn -0.985143 0.171737 -0.000000
vn 0.985143 -0.171737 0.000000
vn 0.985143 -0.171737 0.000000
vn 0.985143 -0.171737 0.000000
vn 0.985143 -0.171737 0.000000
vn -0.171736 -0.985143 0.000000
vn -0.171736 -0.985143 0.000000
vn -0.171736 -0.985143 0.000000
vn -0.171736 -0.985143 0.000000
vn 0.000000 0.000000 -1.000000
vn 0.000000 0.000000 -1.000000
vn 0.000000 0.000000 -1.000000
vn 0.000000 0.000000 -1.000000
vn 0.171737 0.985143 0.000000
vn 0.171737 0.985143 0.000000
vn 0.171737 0.985143 0.000000
vn 0.171737 0.985143 0.000000
vn -0.000000 0.000000 1.000000
vn -0.000000 0.000000 1.000000
vn -0.000000 0.000000 1.000000
vn -0.000000 0.000000 1.000000
vn -0.985143 0.171737 -0.000000
vn -0.985143 0.171737 -0.000000
vn -0.985143 0.171737 -0.000000
vn -0.985143 0.171737 -0.000000
vn 0.985143 -0.171737 0.000000
vn 0.985143 -0.171737 0.000000
vn 0.985143 -0.171737 0.000000
vn 0.985143 -0.171737 0.000000
vn -0.171741 -0.985142 0.000000
vn -0.171741 -0.985142 0.000000
vn -0.171741 -0.985142 0.000000
vn -0.171741 -0.985142 0.000000
vn 0.000000 0.000000 -1.000000
vn 0.000000 0.000000 -1.000000
vn 0.000000 0.000000 -1.000000
vn 0.000000 0.000000 -1.000000
vn 0.171737 0.985143 0.000000
vn 0.171737 0.985143 0.000000
vn 0.171737 0.985143 0.000000
vn 0.171737 0.985143 0.000000
vn -0.000000 0.000000 1.000000
vn -0.000000 0.000000 1.000000
vn -0.000000 0.000000 1.000000
vn -0.000000 0.000000 1.000000
vn -0.985143 0.171737 -0.000000
vn -0.985143 0.171737 -0.000000
vn -0.985143 0.171737 -0.000000
vn -0.985143 0.171737 -0.000000
vn 0.985143 -0.171737 0.000000
vn 0.985143 -0.171737 0.000000
vn 0.985143 -0.171737 0.000000
vn 0.985143 -0.171737 0.000000
vn -0.171736 -0.985143 0.000000
vn -0.171736 -0.985143 0.000000
vn -0.171736 -0.985143 0.000000
vn -0.171736 -0.985143 0.000000
vn 0.000000 0.000000 -1.000000
vn 0.000000 0.000000 -1.000000
vn 0.000000 0.000000 -1.000000
vn 0.000000 0.000000 -1.000000
vn 0.171737 0.985143 0.000000
vn 0.171737 0.985143 0.000000
vn 0.171737 0.985143 0.000000
vn 0.171737 0.985143 0.000000
vn -0.000000 0.000000 1.000000
vn -0.000000 0.000000 1.000000
vn -0.000000 0.000000 1.000000
vn -0.000000 0.000000 1.000000
vn -0.985143 0.171737 -0.000000
vn -0.985143 0.171737 -0.000000
vn -0.985143 0.171737 -0.000000
vn -0.985143 0.171737 -0.000000
vn 0.985143 -0.171737 0.000000
vn 0.985143 -0.171737 0.000000
vn 0.985143 -0.171737 0.000000
vn 0.985143 -0.171737 0.000000
vn -0.171736 -0.985143 0.000000
vn -0.171736 -0.985143 0.000000
vn -0.171736 -0.985143 0.000000
vn -0.171736 -0.985143 0.000000
vn 0.000000 0.000000 -1.000000
vn 0.000000 0.000000 -1.000000
vn 0.000000 0.000000 -1.000000
vn 0.000000 0.000000 -1.000000
vn 0.171737 0.985143 0.000000
vn 0.171737 0.985143 0.000000
vn 0.171737 0.985143 0.000000
vn 0.171737 0.985143 0.000000
vn -0.000000 0.000000 1.000000
vn -0.000000 0.000000 1.000000
vn -0.000000 0.000000 1.000000
vn -0.000000 0.000000 1.000000
vn -0.985143 0.171737 -0.000000
vn -0.985143 0.171737 -0.000000
vn -0.985143 0.171737 -0.000000
vn -0.985143 0.171737 -0.000000
vn 0.985143 -0.171737 0.000000
vn 0.985143 -0.171737 0.000000
vn 0.985143 -0.171737 0.000000
vn 0.985143 -0.171737 0.000000
vn -0.171731 -0.985144 0.000000
vn -0.171731 -0.985144 0.000000
vn -0.171731 -0.985144 0.000000
vn -0.171731 -0.985144 0.000000
vn 0.000000 0.000000 -1.000000
vn 0.000000 0.000000 -1.000000
vn 0.000000 0.000000 -1.000000
vn 0.000000 0.000000 -1.000000
vn 0.171737 0.985143 0.000000
vn 0.171737 0.985143 0.000000
vn 0.171737 0.985143 0.000000
vn 0.171737 0.985143 0.000000
vn -0.000000 0.000000 1.000000
vn -0.000000 0.000000 1.000000
vn -0.000000 0.000000 1.000000
vn -0.000000 0.000000 1.000000
vn -0.985143 0.171737 -0.000000
vn -0.985143 0.171737 -0.000000
vn -0.985143 0.171737 -0.000000
vn -0.985143 0.171737 -0.000000
vn 0.985143 -0.171737 0.000000
vn 0.985143 -0.171737 0.000000
vn 0.985143 -0.171737 0.000000
vn 0.985143 -0.171737 0.000000
vn -0.171741 -0.985142 0.000000
vn -0.171741 -0.985142 0.000000
vn -0.171741 -0.985142 0.000000
vn -0.171741 -0.985142 0.000000
vn 0.000000 0.000000 -1.000000
vn 0.000000 0.000000 -1.000000
vn 0.000000 0.000000 -1.000000
vn 0.000000 0.000000 -1.000000
vn 0.171737 0.985143 0.000000
vn 0.171737 0.985143 0.000000
vn 0.171737 0.985143 0.000000
vn 0.171737 0.985143 0.000000
vn -0.000000 0.000000 1.000000
vn -0.000000 0.000000 1.000000
vn -0.000000 0.000000 1.000000
vn -0.000000 0.000000 1.000000
vn -0.985143 0.171737 -0.000000
vn -0.985143 0.171737 -0.000000
vn -0.985143 0.171737 -0.000000
vn -0.985143 0.171737 -0.000000
vn 0.985143 -0.171737 0.000000
vn 0.985143 -0.171737 0.000000
vn 0.985143 -0.171737 0.000000
vn 0.985143 -0.171737 0.000000
vn -0.171731 -0.985144 0.000000
vn -0.171731 -0.985144 0.000000
vn -0.171731 -0.985144 0.000000
vn -0.171731 -0.985144 0.000000
vn 0.000000 0.000000 -1.000000
vn 0.000000 0.000000 -1.000000
vn 0.000000 0.000000 -1.000000
vn 0.000000 0.000000 -1.000000
vn 0.171737 0.985143 0.000000
vn 0.171737 0.985143 0.000000
vn 0.171737 0.985143 0.000000
vn 0.171737 0.985143 0.000000
vn -0.000000 0.000000 1.000000
vn -0.000000 0.000000 1.000000
vn -0.000000 0.000000 1.000000
vn -0.000000 0.000000 1.000000
vn -0.985143 0.171737 -0.000000
vn -0.985143 0.171737 -0.000000
vn -0.985143 0.171737 -0.000000
vn -0.985143 0.171737 -0.000000
vn 0.985143 -0.171737 0.000000
vn 0.985143 -0.171737 0.000000
vn 0.985143 -0.171737 0.000000
vn 0.985143 -0.171737 0.000000
vn -0.171741 -0.985142 0.000000
vn -0.171741 -0.985142 0.000000
vn -0.171741 -0.985142 0.000000
vn -0.171741 -0.985142 0.000000
vn 0.000000 0.000000 -1.000000
vn 0.000000 0.000000 -1.000000
vn 0.000000 0.000000 -1.000000
vn 0.000000 0.000000 -1.000000
vn 0.171737 0.985143 0.000000
vn 0.171737 0.985143 0.000000
vn 0.171737 0.985143 0.000000
vn 0.171737 0.985143 0.000000
vn -0.000000 0.000000 1.000000
vn -0.000000 0.000000 1.000000
vn -0.000000 0.000000 1.000000
vn -0.000000 0.000000 1.000000
vn -0.985143 0.171737 -0.000000
vn -0.985143 0.171737 -0.000000
vn -0.985143 0.171737 -0.000000
vn -0.985143 0.171737 -0.000000
vn 0.985143 -0.171737 0.000000
vn 0.985143 -0.171737 0.000000
vn 0.985143 -0.171737 0.000000
vn 0.985143 -0.171737 0.000000
vn -0.171736 -0.985143 0.000000
vn -0.171736 -0.985143 0.000000
vn -0.171736 -0.985143 0.000000
vn -0.171736 -0.985143 0.000000
vn 0.000000 0.000000 -1.000000
vn 0.000000 0.000000 -1.000000
vn 0.000000 0.000000 -1.000000
vn 0.000000 0.000000 -1.000000
vn 0.171737 0.985143 0.000000
vn 0.171737 0.985143 0.000000
vn 0.171737 0.985143 0.000000
vn 0.171737 0.985143 0.000000
vn -0.000000 0.000000 1.000000
vn -0.000000 0.000000 1.000000
vn -0.000000 0.000000 1.000000
vn -0.000000 0.000000 1.000000
vn -0.985143 0.171737 -0.000000
vn -0.985143 0.171737 -0.000000
vn -0.985143 0.171737 -0.000000
vn -0.985143 0.171737 -0.000000
vn 0.985143 -0.171737 0.000000
vn 0.985143 -0.171737 0.000000
vn 0.985143 -0.171737 0.000000
vn 0.985143 -0.171737 0.000000
vn -0.171736 -0.985143 0.000000
vn -0.171736 -0.985143 0.000000
vn -0.171736 -0.985143 0.000000
vn -0.171736 -0.985143 0.000000
vn 0.000000 0.000000 -1.000000
vn 0.000000 0.000000 -1.000000
vn 0.000000 0.000000 -1.000000
vn 0.000000 0.000000 -1.000000
vn 0.171737 0.985143 0.000000
vn 0.171737 0.985143 0.000000
vn 0.171737 0.985143 0.000000
vn 0.171737 0.985143 0.000000
vn -0.000000 0.000000 1.000000
vn -0.000000 0.000000 1.000000
vn -0.000000 0.000000 1.000000
vn -0.000000 0.000000 1.000000
vn -0.985143 0.171737 -0.000000
vn -0.985143 0.171737 -0.000000
vn -0.985143 0.171737 -0.000000
vn -0.985143 0.171737 -0.000000
vn 0.985143 -0.171737 0.000000
vn 0.985143 -0.171737 0.000000
vn 0.985143 -0.171737 0.000000
vn 0.985143 -0.171737 0.000000
s off
g polySurface172
usemtl initialShadingGroup
f 1/1/1 2/2/2 4/3/3 3/4/4
f 3/4/5 4/3/6 6/5/7 5/6/8
f 5/6/9 6/5/10 8/7/11 7/8/12
f 7/8/13 8/7/14 2/9/15 1/10/16
f 2/2/17 8/11/18 6/12/19 4/3/20
f 7/13/21 1/1/22 3/4/23 5/14/24
f 9/15/25 10/16/26 12/17/27 11/18/28
f 11/18/29 12/17/30 14/19/31 13/20/32
f 13/20/33 14/19/34 16/21/35 15/22/36
f 15/22/37 16/21/38 10/23/39 9/24/40
f 10/16/41 16/25/42 14/26/43 12/17/44
f 15/27/45 9/15/46 11/18/47 13/28/48
f 17/29/49 18/30/50 20/31/51 19/32/52
f 19/32/53 20/31/54 22/33/55 21/34/56
f 21/34/57 22/33/58 24/35/59 23/36/60
f 23/36/61 24/35/62 18/37/63 17/38/64
f 18/30/65 24/39/66 22/40/67 20/31/68
f 23/41/69 17/29/70 19/32/71 21/42/72
f 25/43/73 26/44/74 28/45/75 27/46/76
f 27/46/77 28/45/78 30/47/79 29/48/80
f 29/48/81 30/47/82 32/49/83 31/50/84
f 31/50/85 32/49/86 26/51/87 25/52/88
f 26/44/89 32/53/90 30/54/91 28/45/92
f 31/55/93 25/43/94 27/46/95 29/56/96
f 33/57/97 34/58/98 36/59/99 35/60/100
f 35/60/101 36/59/102 38/61/103 37/62/104
f 37/62/105 38/61/106 40/63/107 39/64/108
f 39/64/109 40/63/110 34/65/111 33/66/112
f 34/58/113 40/67/114 38/68/115 36/59/116
f 39/69/117 33/57/118 35/60/119 37/70/120
f 41/71/121 42/72/122 44/73/123 43/74/124
f 43/74/125 44/73/126 46/75/127 45/76/128
f 45/76/129 46/75/130 48/77/131 47/78/132
f 47/78/133 48/77/134 42/79/135 41/80/136
f 42/72/137 48/81/138 46/82/139 44/73/140
f 47/83/141 41/71/142 43/74/143 45/84/144
f 49/85/145 50/86/146 52/87/147 51/88/148
f 51/88/149 52/87/150 54/89/151 53/90/152
f 53/90/153 54/89/154 56/91/155 55/92/156
f 55/92/157 56/91/158 50/93/159 49/94/160
f 50/86/161 56/95/162 54/96/163 52/87/164
f 55/97/165 49/85/166 51/88/167 53/98/168
f 57/99/169 58/100/170 60/101/171 59/102/172
f 59/102/173 60/101/174 62/103/175 61/104/176
f 61/104/177 62/103/178 64/105/179 63/106/180
f 63/106/181 64/105/182 58/107/183 57/108/184
f 58/100/185 64/109/186 62/110/187 60/101/188
f 63/111/189 57/99/190 59/102/191 61/112/192
f 65/113/193 66/114/194 68/115/195 67/116/196
f 67/116/197 68/115/198 70/117/199 69/118/200
f 69/118/201 70/117/202 72/119/203 71/120/204
f 71/120/205 72/119/206 66/121/207 65/122/208
f 66/114/209 72/123/210 70/124/211 68/115/212
f 71/125/213 65/113/214 67/116/215 69/126/216
f 73/127/217 74/128/218 76/129/219 75/130/220
f 75/130/221 76/129/222 78/131/223 77/132/224
f 77/132/225 78/131/226 80/133/227 79/134/228
f 79/134/229 80/133/230 74/135/231 73/136/232
f 74/128/233 80/137/234 78/138/235 76/129/236
f 79/139/237 73/127/238 75/130/239 77/140/240
f 81/141/241 82/142/242 84/143/243 83/144/244
f 83/144/245 84/143/246 86/145/247 85/146/248
f 85/146/249 86/145/250 88/147/251 87/148/252
f 87/148/253 88/147/254 82/149/255 81/150/256
f 82/142/257 88/151/258 86/152/259 84/143/260
f 87/153/261 81/141/262 83/144/263 85/154/264
f 89/155/265 90/156/266 92/157/267 91/158/268
f 91/158/269 92/157/270 94/159/271 93/160/272
f 93/160/273 94/159/274 96/161/275 95/162/276
f 95/162/277 96/161/278 90/163/279 89/164/280
f 90/156/281 96/165/282 94/166/283 92/157/284
f 95/167/285 89/155/286 91/158/287 93/168/288
f 97/169/289 98/170/290 100/171/291 99/172/292
f 99/172/293 100/171/294 102/173/295 101/174/296
f 101/174/297 102/173/298 104/175/299 103/176/300
f 103/176/301 104/175/302 98/177/303 97/178/304
f 98/170/305 104/179/306 102/180/307 100/171/308
f 103/181/309 97/169/310 99/172/311 101/182/312
f 105/183/313 106/184/314 108/185/315 107/186/316
f 107/186/317 108/185/318 110/187/319 109/188/320
f 109/188/321 110/187/322 112/189/323 111/190/324
f 111/190/325 112/189/326 106/191/327 105/192/328
f 106/184/329 112/193/330 110/194/331 108/185/332
f 111/195/333 105/183/334 107/186/335 109/196/336
