# This file uses centimeters as units for non-parametric coordinates.

mtllib TentGreybox2.mtl
g default
v -164.079754 -7.246541 141.937326
v 164.079754 -7.246541 141.937326
v -164.079754 -7.246541 -141.937326
v 164.079754 -7.246541 -141.937326
v 106.568531 115.189068 -141.937326
v 106.568531 -7.246541 -141.937326
v 106.568531 -7.246541 141.937326
v 106.568531 115.189068 141.937326
v -0.000010 157.006861 -141.937326
v -0.000010 -7.246541 -141.937326
v -0.000010 -7.246541 141.937326
v -0.000010 157.006861 141.937326
v -106.568531 115.189068 -141.937326
v -106.568531 -7.246541 -141.937326
v -106.568531 -7.246541 141.937326
v -106.568531 115.189068 141.937326
vt 0.354185 -0.020823
vt 0.645815 -0.020823
vt 0.369946 0.683951
vt 0.630054 0.683951
vt 0.375050 0.999987
vt 0.624950 0.999987
vt 0.562500 0.500000
vt 0.562500 0.750000
vt 0.562500 0.000000
vt 0.562500 1.000000
vt 0.562500 0.250000
vt 0.500000 0.500000
vt 0.500000 0.750000
vt 0.500000 0.000000
vt 0.500000 1.000000
vt 0.500000 0.250000
vt 0.437500 0.500000
vt 0.437500 0.750000
vt 0.437500 0.000000
vt 0.437500 1.000000
vt 0.437500 0.250000
vn 0.000000 0.000000 1.000000
vn 0.000000 0.000000 1.000000
vn 0.000000 0.000000 1.000000
vn -0.905119 0.425158 0.000000
vn -0.905119 0.425158 0.000000
vn -0.905119 0.425158 0.000000
vn -0.905119 0.425158 0.000000
vn 0.000000 0.000000 -1.000000
vn 0.000000 0.000000 -1.000000
vn 0.000000 0.000000 -1.000000
vn 0.000000 -1.000000 0.000000
vn 0.000000 -1.000000 0.000000
vn 0.000000 -1.000000 0.000000
vn 0.000000 -1.000000 0.000000
vn 0.000000 0.000000 -1.000000
vn 0.000000 0.000000 -1.000000
vn 0.000000 0.000000 -1.000000
vn 0.000000 -1.000000 0.000000
vn 0.000000 -1.000000 0.000000
vn 0.000000 -1.000000 0.000000
vn 0.000000 -1.000000 0.000000
vn 0.000000 0.000000 1.000000
vn 0.000000 0.000000 1.000000
vn 0.000000 0.000000 1.000000
vn 0.905119 0.425158 0.000000
vn 0.905119 0.425158 0.000000
vn 0.905119 0.425158 0.000000
vn 0.905119 0.425158 0.000000
vn 0.000000 0.000000 -1.000000
vn 0.000000 0.000000 -1.000000
vn 0.000000 0.000000 -1.000000
vn 0.000000 0.000000 -1.000000
vn 0.000000 -1.000000 0.000000
vn 0.000000 -1.000000 0.000000
vn 0.000000 -1.000000 0.000000
vn 0.000000 -1.000000 0.000000
vn -0.000000 0.000000 1.000000
vn -0.000000 0.000000 1.000000
vn -0.000000 0.000000 1.000000
vn -0.000000 0.000000 1.000000
vn 0.365286 0.930895 0.000000
vn 0.365286 0.930895 0.000000
vn 0.365286 0.930895 0.000000
vn 0.365286 0.930895 0.000000
vn 0.000000 0.000000 -1.000000
vn 0.000000 0.000000 -1.000000
vn 0.000000 0.000000 -1.000000
vn 0.000000 0.000000 -1.000000
vn 0.000000 -1.000000 0.000000
vn 0.000000 -1.000000 0.000000
vn 0.000000 -1.000000 0.000000
vn 0.000000 -1.000000 0.000000
vn 0.000000 0.000000 1.000000
vn 0.000000 0.000000 1.000000
vn 0.000000 0.000000 1.000000
vn 0.000000 0.000000 1.000000
vn -0.365286 0.930895 0.000000
vn -0.365286 0.930895 0.000000
vn -0.365286 0.930895 0.000000
vn -0.365286 0.930895 0.000000
s off
g pCube28
usemtl initialShadingGroup
f 1/1/1 15/19/2 16/21/3
f 1/1/4 16/21/5 13/17/6 3/3/7
f 3/3/8 13/17/9 14/18/10
f 3/3/11 14/18/12 15/20/13 1/5/14
f 5/7/15 4/4/16 6/8/17
f 7/10/18 6/8/19 4/4/20 2/6/21
f 8/11/22 7/9/23 2/2/24
f 5/7/25 8/11/26 2/2/27 4/4/28
f 9/12/29 5/7/30 6/8/31 10/13/32
f 11/15/33 10/13/34 6/8/35 7/10/36
f 12/16/37 11/14/38 7/9/39 8/11/40
f 9/12/41 12/16/42 8/11/43 5/7/44
f 13/17/45 9/12/46 10/13/47 14/18/48
f 15/20/49 14/18/50 10/13/51 11/15/52
f 16/21/53 15/19/54 11/14/55 12/16/56
f 13/17/57 16/21/58 12/16/59 9/12/60
