# This file uses centimeters as units for non-parametric coordinates.

mtllib BackgroundPlane.mtl
g default
v -500.000000 -250.000000 -0.000000
v 500.000000 -250.000000 -0.000000
v -500.000000 250.000000 0.000000
v 500.000000 250.000000 0.000000
vt 0.990477 0.744328
vt 0.013165 0.744328
vt 0.013165 0.255672
vt 0.990477 0.255672
vn 0.000000 -0.000000 1.000000
vn 0.000000 -0.000000 1.000000
vn 0.000000 -0.000000 1.000000
vn 0.000000 -0.000000 1.000000
s off
g pPlane1
usemtl initialShadingGroup
f 4/1/1 3/2/2 1/3/3 2/4/4
g default
v -500.000000 -250.000000 -0.000000
v 500.000000 -250.000000 -0.000000
v -500.000000 250.000000 0.000000
v 500.000000 250.000000 0.000000
vt 0.990477 0.744328
vt 0.013165 0.744328
vt 0.013165 0.255672
vt 0.990477 0.255672
vn 0.000000 -0.000000 1.000000
vn 0.000000 -0.000000 1.000000
vn 0.000000 -0.000000 1.000000
vn 0.000000 -0.000000 1.000000
s off
g pPlane1
f 8/5/5 7/6/6 5/7/7 6/8/8
