# This file uses centimeters as units for non-parametric coordinates.

mtllib Grassv2.mtl
g default
v -0.309842 -0.572695 -0.240318
v 0.277400 -0.752311 -2.308012
v -9.515551 13.182585 -4.934643
v -9.462773 13.154228 -5.409339
v -1.236670 3.438871 0.120098
v -0.152940 3.106848 -3.708151
v -2.047395 6.010614 -0.195357
v -2.971475 8.101010 -1.274339
v -2.018762 7.796726 -4.922044
v -0.874447 5.649681 -4.374348
v -4.269751 10.171211 -2.679935
v -6.433177 11.890524 -3.920994
v -6.230519 11.797322 -5.366801
v -3.727642 9.977652 -5.229273
v -0.378308 -1.024433 -0.631623
v 1.666738 -1.072699 -0.446037
v -0.415208 11.599720 10.553261
v 0.033683 11.562301 10.745372
v -0.821505 2.611571 1.161818
v 1.918487 2.546903 1.410469
v -0.734545 6.069694 5.182986
v -0.955254 4.574512 3.381258
v 1.792318 4.503940 3.662978
v 1.778435 5.865477 5.447654
v -0.449314 9.321691 8.787025
v -0.554585 7.404795 6.885299
v 1.563313 7.291009 7.438090
v 0.928495 9.219882 9.303272
v -0.716866 -0.691116 -2.952401
v -1.263682 -0.105710 -0.255872
v 18.202314 3.038810 1.599271
v 3.177922 2.584568 -4.083294
v 2.260322 3.622921 0.634146
v 5.497194 4.443554 -3.684945
v 9.097003 6.096808 -2.068946
v 8.425242 7.011757 1.971012
v 4.645860 5.612707 1.399089
v 11.644412 6.080371 -0.856912
v 14.528131 5.396148 0.206620
v 14.532836 5.825313 2.008523
v 11.109922 6.836610 2.029812
v 1.161549 -1.148378 -0.053277
v -0.986994 -1.461589 -0.596510
v -0.584471 13.207178 -9.665263
v 1.037246 6.143444 -4.062363
v -2.555749 5.762942 -5.031850
v 1.618442 2.948945 -0.936742
v -1.947906 2.462170 -1.854620
v -0.046562 10.769941 -8.556482
v 0.376669 8.051022 -6.434470
v -2.144362 7.876040 -7.148883
v -1.442913 10.729107 -8.973399
v 0.945843 -0.946707 0.637174
v 1.052990 -0.598762 -2.158485
v -17.957228 10.260132 -0.084788
v -2.040151 3.106742 2.136216
v -1.835205 3.739722 -2.934041
v -4.314119 5.529278 2.769560
v -7.230037 7.712372 3.078875
v -6.886493 8.316883 -1.530483
v -4.057557 6.226389 -2.766345
v -10.563784 9.396912 2.572565
v -13.934542 10.242279 1.677131
v -13.574447 10.519063 -0.100084
v -10.162334 9.823568 -0.422997
v 1.005625 -0.917596 -1.752548
v -0.966471 -0.866657 -0.773406
v 6.268370 12.913821 10.013995
v 5.798196 12.925968 10.247433
v 2.039055 3.272834 -0.730811
v -0.603198 3.341082 0.581063
v 2.738610 6.262143 0.507181
v 3.525304 8.787922 2.276486
v 1.122505 8.849984 3.469471
v 0.084038 6.330710 1.825171
v 4.206143 10.565690 3.991853
v 4.991540 11.862883 6.175737
v 3.469385 11.902199 6.931485
v 2.150940 10.618776 5.012257
v 1.381215 -1.183926 -1.853968
v -1.615446 -0.683005 -2.011635
v 3.896291 21.655892 -6.653735
v 3.181849 21.775316 -6.691324
v 2.859426 4.708828 -1.253034
v -1.155558 5.379971 -1.464280
v 4.038457 12.263477 -3.296932
v 3.715014 9.443966 -2.273708
v -0.320074 10.118470 -2.486012
v 0.299248 12.888521 -3.493668
v 4.124618 17.816746 -5.757102
v 4.155533 14.945156 -4.695758
v 1.013113 15.470441 -4.861094
v 1.885736 18.190994 -5.874900
vt 0.280468 0.813077
vt 0.363599 0.813077
vt 0.333160 0.978917
vt 0.306696 0.978917
vt 0.250502 0.203190
vt 0.401411 0.203190
vt 0.398000 0.362560
vt 0.246482 0.362560
vt 0.250713 0.520349
vt 0.389731 0.520349
vt 0.380025 0.669589
vt 0.261944 0.669589
vt 0.269213 0.017177
vt 0.381128 0.017177
vt 0.280468 0.813077
vt 0.363599 0.813077
vt 0.333160 0.978917
vt 0.306696 0.978917
vt 0.401411 0.203190
vt 0.398000 0.362560
vt 0.246481 0.362560
vt 0.250502 0.203190
vt 0.250713 0.520349
vt 0.389731 0.520349
vt 0.380025 0.669589
vt 0.261944 0.669589
vt 0.381128 0.017177
vt 0.269213 0.017177
vt 0.114597 0.829248
vt 0.195105 0.837424
vt 0.151272 0.981139
vt 0.077867 0.244206
vt 0.230937 0.244206
vt 0.229816 0.386999
vt 0.078966 0.386999
vt 0.082915 0.531756
vt 0.225156 0.533656
vt 0.215453 0.685140
vt 0.095981 0.687657
vt 0.098731 0.015056
vt 0.212398 0.015056
vt 0.116808 0.829681
vt 0.193497 0.829693
vt 0.151759 0.977053
vt 0.230937 0.244206
vt 0.227136 0.532554
vt 0.080880 0.532525
vt 0.077867 0.244206
vt 0.216011 0.685149
vt 0.095469 0.685098
vt 0.212399 0.015056
vt 0.098731 0.015056
vt 0.116945 0.834193
vt 0.193627 0.834193
vt 0.151178 0.982554
vt 0.077867 0.244206
vt 0.230937 0.244206
vt 0.229817 0.386998
vt 0.078966 0.386998
vt 0.080912 0.532579
vt 0.227151 0.532579
vt 0.216231 0.686751
vt 0.095751 0.686751
vt 0.098731 0.015056
vt 0.212399 0.015056
vt 0.280467 0.813077
vt 0.363599 0.813077
vt 0.333160 0.978917
vt 0.306697 0.978917
vt 0.250502 0.203190
vt 0.401411 0.203190
vt 0.398001 0.362560
vt 0.246482 0.362560
vt 0.250713 0.520349
vt 0.389731 0.520348
vt 0.380025 0.669589
vt 0.261944 0.669589
vt 0.269213 0.017177
vt 0.381128 0.017177
vt 0.280467 0.813077
vt 0.363599 0.813077
vt 0.333160 0.978917
vt 0.306697 0.978917
vt 0.401411 0.203190
vt 0.398001 0.362560
vt 0.246482 0.362560
vt 0.250502 0.203190
vt 0.250714 0.520348
vt 0.389731 0.520348
vt 0.380025 0.669589
vt 0.261944 0.669589
vt 0.381128 0.017177
vt 0.269213 0.017177
vn 0.535413 0.843849 0.035367
vn 0.531314 0.846486 0.034147
vn 0.387791 0.921722 -0.006763
vn 0.387791 0.921723 -0.006763
vn 0.934475 0.261684 0.241408
vn 0.934345 0.262229 0.241318
vn 0.890018 0.403633 0.212010
vn 0.893397 0.394960 0.214120
vn 0.827370 0.534861 0.171415
vn 0.822099 0.544117 0.167600
vn 0.717618 0.687990 0.108139
vn 0.725048 0.679583 0.111676
vn 0.947668 0.196634 0.251516
vn 0.947668 0.196634 0.251516
vn 0.277632 0.658360 -0.699630
vn 0.275351 0.661396 -0.697665
vn 0.332787 0.578890 -0.744405
vn 0.332787 0.578890 -0.744405
vn 0.088418 0.602710 -0.793046
vn 0.091094 0.761160 -0.642134
vn 0.092020 0.762076 -0.640916
vn 0.088404 0.603190 -0.792683
vn 0.130275 0.783090 -0.608110
vn 0.128464 0.782520 -0.609229
vn 0.196382 0.754069 -0.626749
vn 0.202425 0.747716 -0.632412
vn 0.091250 0.449439 -0.888638
vn 0.091250 0.449439 -0.888638
vn 0.372172 0.905768 -0.202665
vn 0.377828 0.903463 -0.202485
vn 0.580196 0.791972 -0.190141
vn -0.620172 0.732523 -0.280708
vn -0.615599 0.736472 -0.280441
vn -0.410940 0.870888 -0.269597
vn -0.445734 0.852852 -0.271966
vn -0.204625 0.945517 -0.253232
vn -0.179665 0.951134 -0.251125
vn 0.165457 0.962630 -0.214401
vn 0.168181 0.962200 -0.214213
vn -0.663325 0.692852 -0.282765
vn -0.663325 0.692853 -0.282765
vn -0.262116 0.529664 0.806691
vn -0.261610 0.533771 0.804145
vn -0.277672 0.346366 0.896063
vn -0.276280 0.480434 0.832378
vn -0.261055 0.665602 0.699159
vn -0.258526 0.674027 0.691991
vn -0.275615 0.505595 0.817563
vn -0.250315 0.668466 0.700354
vn -0.251293 0.657765 0.710069
vn -0.271322 0.232330 0.934027
vn -0.271322 0.232330 0.934027
vn 0.133166 0.976952 0.166829
vn 0.137816 0.976216 0.167359
vn -0.057883 0.988149 0.142166
vn 0.780145 0.615942 0.109500
vn 0.781196 0.614637 0.109334
vn 0.686245 0.716522 0.125158
vn 0.676197 0.725724 0.126812
vn 0.543917 0.825955 0.148161
vn 0.558445 0.816625 0.145817
vn 0.371947 0.913015 0.167505
vn 0.362679 0.916638 0.168045
vn 0.819037 0.564440 0.102886
vn 0.819037 0.564440 0.102886
vn -0.154569 0.920371 -0.359200
vn -0.154569 0.920371 -0.359200
vn -0.091461 0.967789 -0.234562
vn -0.091461 0.967789 -0.234562
vn -0.405880 0.367864 -0.836623
vn -0.405880 0.367864 -0.836623
vn -0.370106 0.516319 -0.772293
vn -0.370106 0.516319 -0.772293
vn -0.322747 0.654121 -0.684076
vn -0.322747 0.654121 -0.684076
vn -0.255765 0.790663 -0.556270
vn -0.255765 0.790663 -0.556270
vn -0.416197 0.310977 -0.854443
vn -0.416197 0.310977 -0.854443
vn 0.000528 0.303104 0.952957
vn 0.000957 0.305436 0.952212
vn -0.013352 0.226656 0.973883
vn -0.013352 0.226656 0.973883
vn -0.041801 0.063775 0.997088
vn -0.007363 0.259885 0.965611
vn -0.007249 0.260511 0.965444
vn -0.041801 0.063775 0.997088
vn 0.017876 0.395920 0.918111
vn 0.017518 0.394036 0.918928
vn 0.021973 0.417391 0.908461
vn 0.021536 0.415111 0.909516
vn -0.066469 -0.084712 0.994186
vn -0.066469 -0.084712 0.994186
s 1
g grass2 group1
usemtl grass2SG1
f 12/1/1 13/2/2 4/3/3 3/4/4
f 5/5/5 6/6/6 10/7/7 7/8/8
f 8/9/9 9/10/10 14/11/11 11/12/12
f 1/13/13 2/14/14 6/6/6 5/5/5
f 8/9/9 7/8/8 10/7/7 9/10/10
f 12/1/1 11/12/12 14/11/11 13/2/2
s 3
f 28/15/15 25/16/16 17/17/17 18/18/18
f 19/19/19 22/20/20 23/21/21 20/22/22
f 24/23/23 21/24/24 26/25/25 27/26/26
f 15/27/27 19/19/19 20/22/22 16/28/28
f 22/20/20 21/24/24 24/23/23 23/21/21
f 26/25/25 25/16/16 28/15/15 27/26/26
s 5
f 39/29/29 40/30/30 31/31/31
f 32/32/32 33/33/33 37/34/34 34/35/35
f 35/36/36 36/37/37 41/38/38 38/39/39
f 29/40/40 30/41/41 33/33/33 32/32/32
f 35/36/36 34/35/35 37/34/34 36/37/37
f 39/29/29 38/39/39 41/38/38 40/30/30
s 7
f 52/42/42 49/43/43 44/44/44
f 47/45/45 45/46/46 46/47/47 48/48/48
f 45/46/46 50/49/49 51/50/50 46/47/47
f 42/51/51 47/45/45 48/48/48 43/52/52
f 50/49/49 49/43/43 52/42/42 51/50/50
s 9
f 63/53/53 64/54/54 55/55/55
f 56/56/56 57/57/57 61/58/58 58/59/59
f 59/60/60 60/61/61 65/62/62 62/63/63
f 53/64/64 54/65/65 57/57/57 56/56/56
f 59/60/60 58/59/59 61/58/58 60/61/61
f 63/53/53 62/63/63 65/62/62 64/54/54
s 11
f 77/66/66 78/67/67 69/68/68 68/69/69
f 70/70/70 71/71/71 75/72/72 72/73/73
f 73/74/74 74/75/75 79/76/76 76/77/77
f 66/78/78 67/79/79 71/71/71 70/70/70
f 73/74/74 72/73/73 75/72/72 74/75/75
f 77/66/66 76/77/77 79/76/76 78/67/67
s 13
f 93/80/80 90/81/81 82/82/82 83/83/83
f 84/84/84 87/85/85 88/86/86 85/87/87
f 89/88/88 86/89/89 91/90/90 92/91/91
f 80/92/92 84/84/84 85/87/87 81/93/93
f 87/85/85 86/89/89 89/88/88 88/86/86
f 91/90/90 90/81/81 93/80/80 92/91/91
